<mxfile host="Electron" modified="2023-10-19T05:13:18.117Z" agent="Mozilla/5.0 (Macintosh; Intel Mac OS X 10_15_7) AppleWebKit/537.36 (KHTML, like Gecko) draw.io/21.5.1 Chrome/112.0.5615.204 Electron/24.6.0 Safari/537.36" etag="MVhfxjBh1obX215VeON0" version="21.5.1" type="device" pages="2">
  <diagram id="ECv-XNJ4XRlCrGNFarUG" name="Collection">
    <mxGraphModel dx="984" dy="659" grid="1" gridSize="10" guides="1" tooltips="1" connect="1" arrows="1" fold="1" page="1" pageScale="1" pageWidth="3300" pageHeight="4681" background="none" math="0" shadow="0">
      <root>
        <mxCell id="OPeouW7zU2T9bfka8qwi-0" />
        <mxCell id="OPeouW7zU2T9bfka8qwi-1" parent="OPeouW7zU2T9bfka8qwi-0" />
        <mxCell id="vHIxbyvmSNN-OSuIzrst-0" value="java.util.concurrent" style="shape=umlFrame;whiteSpace=wrap;html=1;rounded=0;sketch=0;fontColor=#1D3557;align=center;width=120;height=20;fillColor=#B9E0A5;strokeColor=#97D077;fontStyle=0;fontSize=10;" parent="OPeouW7zU2T9bfka8qwi-1" vertex="1">
          <mxGeometry x="875" y="238" width="549" height="408" as="geometry" />
        </mxCell>
        <mxCell id="IEVo2PiqcmnSKfmIx04M-0" value="java.util" style="shape=umlFrame;whiteSpace=wrap;html=1;rounded=0;sketch=0;fontColor=#1D3557;align=center;width=70;height=20;fillColor=#B9E0A5;strokeColor=#97D077;fontStyle=0;fontSize=10;" parent="OPeouW7zU2T9bfka8qwi-1" vertex="1">
          <mxGeometry x="329" y="94" width="1101" height="558" as="geometry" />
        </mxCell>
        <mxCell id="37gNFeQTkPEJshOFGkpo-0" value="&lt;p style=&quot;margin: 4px 0px 0px; font-size: 10px;&quot;&gt;&lt;span style=&quot;font-size: 10px;&quot;&gt;Iterable&amp;lt;E&amp;gt;&lt;/span&gt;&lt;/p&gt;" style="verticalAlign=middle;align=center;overflow=fill;fontSize=10;fontFamily=Helvetica;html=1;fillColor=#d5e8d4;strokeColor=#82b366;fontStyle=0" parent="OPeouW7zU2T9bfka8qwi-1" vertex="1">
          <mxGeometry x="612.5" y="100" width="70" height="20" as="geometry" />
        </mxCell>
        <mxCell id="oZgOsWf_ZYodiai_v7FT-10" style="edgeStyle=orthogonalEdgeStyle;rounded=0;sketch=0;orthogonalLoop=1;jettySize=auto;html=1;exitX=0.5;exitY=0;exitDx=0;exitDy=0;entryX=0.5;entryY=1;entryDx=0;entryDy=0;strokeColor=#457B9D;fillColor=#A8DADC;fontColor=#1D3557;endArrow=block;endFill=0;endSize=8;fontStyle=0;fontSize=10;" parent="OPeouW7zU2T9bfka8qwi-1" source="37gNFeQTkPEJshOFGkpo-1" target="37gNFeQTkPEJshOFGkpo-0" edge="1">
          <mxGeometry relative="1" as="geometry" />
        </mxCell>
        <mxCell id="37gNFeQTkPEJshOFGkpo-1" value="&lt;p style=&quot;margin: 4px 0px 0px; font-size: 10px;&quot;&gt;&lt;span style=&quot;font-size: 10px;&quot;&gt;Collection&amp;lt;E&amp;gt;&lt;/span&gt;&lt;/p&gt;" style="verticalAlign=middle;align=center;overflow=fill;fontSize=10;fontFamily=Helvetica;html=1;fillColor=#d5e8d4;strokeColor=#82b366;fontStyle=0" parent="OPeouW7zU2T9bfka8qwi-1" vertex="1">
          <mxGeometry x="612.5" y="150" width="70" height="20" as="geometry" />
        </mxCell>
        <mxCell id="oZgOsWf_ZYodiai_v7FT-9" style="edgeStyle=orthogonalEdgeStyle;rounded=0;sketch=0;orthogonalLoop=1;jettySize=auto;html=1;exitX=0.5;exitY=0;exitDx=0;exitDy=0;entryX=0.5;entryY=1;entryDx=0;entryDy=0;strokeColor=#457B9D;fillColor=#A8DADC;fontColor=#1D3557;endArrow=block;endFill=0;endSize=8;fontStyle=0;fontSize=10;" parent="OPeouW7zU2T9bfka8qwi-1" source="37gNFeQTkPEJshOFGkpo-2" target="37gNFeQTkPEJshOFGkpo-1" edge="1">
          <mxGeometry relative="1" as="geometry" />
        </mxCell>
        <mxCell id="37gNFeQTkPEJshOFGkpo-2" value="&lt;p style=&quot;margin: 4px 0px 0px; font-size: 10px;&quot;&gt;&lt;span style=&quot;font-size: 10px;&quot;&gt;List&amp;lt;E&amp;gt;&lt;/span&gt;&lt;/p&gt;" style="verticalAlign=middle;align=center;overflow=fill;fontSize=10;fontFamily=Helvetica;html=1;fillColor=#d5e8d4;strokeColor=#82b366;fontStyle=0" parent="OPeouW7zU2T9bfka8qwi-1" vertex="1">
          <mxGeometry x="612.5" y="210" width="70" height="20" as="geometry" />
        </mxCell>
        <mxCell id="oZgOsWf_ZYodiai_v7FT-11" style="edgeStyle=orthogonalEdgeStyle;rounded=0;sketch=0;orthogonalLoop=1;jettySize=auto;html=1;exitX=0.5;exitY=0;exitDx=0;exitDy=0;entryX=0.75;entryY=1;entryDx=0;entryDy=0;strokeColor=#457B9D;fillColor=#A8DADC;fontColor=#1D3557;endArrow=block;endFill=0;endSize=8;fontStyle=0;fontSize=10;" parent="OPeouW7zU2T9bfka8qwi-1" source="37gNFeQTkPEJshOFGkpo-3" target="37gNFeQTkPEJshOFGkpo-1" edge="1">
          <mxGeometry relative="1" as="geometry" />
        </mxCell>
        <mxCell id="37gNFeQTkPEJshOFGkpo-3" value="&lt;p style=&quot;margin: 4px 0px 0px; font-size: 10px;&quot;&gt;&lt;span style=&quot;font-size: 10px;&quot;&gt;Queue&amp;lt;E&amp;gt;&lt;/span&gt;&lt;/p&gt;" style="verticalAlign=middle;align=center;overflow=fill;fontSize=10;fontFamily=Helvetica;html=1;fillColor=#d5e8d4;strokeColor=#82b366;fontStyle=0" parent="OPeouW7zU2T9bfka8qwi-1" vertex="1">
          <mxGeometry x="770" y="210" width="70" height="20" as="geometry" />
        </mxCell>
        <mxCell id="oZgOsWf_ZYodiai_v7FT-22" style="edgeStyle=orthogonalEdgeStyle;rounded=0;sketch=0;orthogonalLoop=1;jettySize=auto;html=1;exitX=0.5;exitY=0;exitDx=0;exitDy=0;strokeColor=#457B9D;fillColor=#A8DADC;fontColor=#1D3557;endArrow=block;endFill=0;endSize=8;fontStyle=0;fontSize=10;entryX=0.5;entryY=1;entryDx=0;entryDy=0;" parent="OPeouW7zU2T9bfka8qwi-1" source="37gNFeQTkPEJshOFGkpo-4" target="37gNFeQTkPEJshOFGkpo-3" edge="1">
          <mxGeometry relative="1" as="geometry">
            <Array as="points">
              <mxPoint x="805" y="290" />
            </Array>
            <mxPoint x="810" y="240" as="targetPoint" />
          </mxGeometry>
        </mxCell>
        <mxCell id="37gNFeQTkPEJshOFGkpo-4" value="&lt;p style=&quot;margin: 4px 0px 0px; font-size: 10px;&quot;&gt;&lt;span style=&quot;font-size: 10px;&quot;&gt;Deque&amp;lt;E&amp;gt;&lt;/span&gt;&lt;/p&gt;" style="verticalAlign=middle;align=center;overflow=fill;fontSize=10;fontFamily=Helvetica;html=1;fillColor=#d5e8d4;strokeColor=#82b366;fontStyle=0" parent="OPeouW7zU2T9bfka8qwi-1" vertex="1">
          <mxGeometry x="770" y="290" width="70" height="20" as="geometry" />
        </mxCell>
        <mxCell id="oZgOsWf_ZYodiai_v7FT-25" style="edgeStyle=orthogonalEdgeStyle;rounded=0;sketch=0;orthogonalLoop=1;jettySize=auto;html=1;exitX=0.5;exitY=0;exitDx=0;exitDy=0;fillColor=#A8DADC;fontColor=#1D3557;endArrow=block;endFill=0;endSize=8;dashed=1;strokeColor=#999999;fontStyle=0;fontSize=10;entryX=0.25;entryY=1;entryDx=0;entryDy=0;" parent="OPeouW7zU2T9bfka8qwi-1" source="37gNFeQTkPEJshOFGkpo-5" target="37gNFeQTkPEJshOFGkpo-2" edge="1">
          <mxGeometry relative="1" as="geometry">
            <Array as="points">
              <mxPoint x="572.5" y="380" />
              <mxPoint x="630.5" y="380" />
            </Array>
            <mxPoint x="632.5" y="240" as="targetPoint" />
          </mxGeometry>
        </mxCell>
        <mxCell id="37gNFeQTkPEJshOFGkpo-5" value="&lt;p style=&quot;margin: 4px 0px 0px; font-size: 10px;&quot;&gt;&lt;span style=&quot;font-size: 10px;&quot;&gt;Vector&amp;lt;E&amp;gt;&lt;/span&gt;&lt;/p&gt;" style="verticalAlign=middle;align=center;overflow=fill;fontSize=10;fontFamily=Helvetica;html=1;strokeColor=#457B9D;fontColor=#1D3557;fillColor=#999999;fontStyle=0" parent="OPeouW7zU2T9bfka8qwi-1" vertex="1">
          <mxGeometry x="542.5" y="430" width="60" height="20" as="geometry" />
        </mxCell>
        <mxCell id="oZgOsWf_ZYodiai_v7FT-24" style="edgeStyle=orthogonalEdgeStyle;rounded=0;sketch=0;orthogonalLoop=1;jettySize=auto;html=1;exitX=0.5;exitY=0;exitDx=0;exitDy=0;entryX=0.5;entryY=1;entryDx=0;entryDy=0;strokeColor=#457B9D;fillColor=#A8DADC;fontColor=#1D3557;endArrow=block;endFill=0;endSize=8;dashed=1;fontStyle=0;fontSize=10;" parent="OPeouW7zU2T9bfka8qwi-1" source="37gNFeQTkPEJshOFGkpo-6" target="37gNFeQTkPEJshOFGkpo-2" edge="1">
          <mxGeometry relative="1" as="geometry" />
        </mxCell>
        <mxCell id="37gNFeQTkPEJshOFGkpo-6" value="&lt;p style=&quot;margin: 4px 0px 0px; font-size: 10px;&quot;&gt;&lt;span style=&quot;font-size: 10px;&quot;&gt;ArrayList&amp;lt;E&amp;gt;&lt;/span&gt;&lt;/p&gt;" style="verticalAlign=middle;align=center;overflow=fill;fontSize=10;fontFamily=Helvetica;html=1;strokeColor=#6c8ebf;fillColor=#dae8fc;fontStyle=0" parent="OPeouW7zU2T9bfka8qwi-1" vertex="1">
          <mxGeometry x="612.5" y="430" width="70" height="20" as="geometry" />
        </mxCell>
        <mxCell id="oZgOsWf_ZYodiai_v7FT-23" style="edgeStyle=orthogonalEdgeStyle;rounded=0;sketch=0;orthogonalLoop=1;jettySize=auto;html=1;exitX=0.5;exitY=0;exitDx=0;exitDy=0;strokeColor=#457B9D;fillColor=#A8DADC;fontColor=#1D3557;entryX=0.122;entryY=1;entryDx=0;entryDy=0;entryPerimeter=0;endArrow=block;endFill=0;endSize=8;dashed=1;fontStyle=0;fontSize=10;" parent="OPeouW7zU2T9bfka8qwi-1" source="37gNFeQTkPEJshOFGkpo-7" target="37gNFeQTkPEJshOFGkpo-4" edge="1">
          <mxGeometry relative="1" as="geometry">
            <mxPoint x="877" y="322" as="targetPoint" />
            <Array as="points">
              <mxPoint x="745" y="380" />
              <mxPoint x="779" y="380" />
            </Array>
          </mxGeometry>
        </mxCell>
        <mxCell id="oZgOsWf_ZYodiai_v7FT-26" style="edgeStyle=orthogonalEdgeStyle;rounded=0;sketch=0;orthogonalLoop=1;jettySize=auto;html=1;exitX=0.25;exitY=0;exitDx=0;exitDy=0;entryX=0.75;entryY=1;entryDx=0;entryDy=0;strokeColor=#457B9D;fillColor=#A8DADC;fontColor=#1D3557;endArrow=block;endFill=0;endSize=8;dashed=1;fontStyle=0;fontSize=10;" parent="OPeouW7zU2T9bfka8qwi-1" target="37gNFeQTkPEJshOFGkpo-2" edge="1">
          <mxGeometry relative="1" as="geometry">
            <Array as="points">
              <mxPoint x="730" y="430" />
              <mxPoint x="730" y="380" />
              <mxPoint x="665" y="380" />
            </Array>
            <mxPoint x="710" y="430" as="sourcePoint" />
          </mxGeometry>
        </mxCell>
        <mxCell id="37gNFeQTkPEJshOFGkpo-7" value="&lt;p style=&quot;margin: 4px 0px 0px; font-size: 10px;&quot;&gt;&lt;span style=&quot;font-size: 10px;&quot;&gt;LinkedList&amp;lt;E&amp;gt;&lt;/span&gt;&lt;/p&gt;" style="verticalAlign=middle;align=center;overflow=fill;fontSize=10;fontFamily=Helvetica;html=1;strokeColor=#6c8ebf;fillColor=#dae8fc;fontStyle=0" parent="OPeouW7zU2T9bfka8qwi-1" vertex="1">
          <mxGeometry x="710" y="430" width="70" height="20" as="geometry" />
        </mxCell>
        <mxCell id="oZgOsWf_ZYodiai_v7FT-49" style="edgeStyle=orthogonalEdgeStyle;rounded=0;sketch=0;orthogonalLoop=1;jettySize=auto;html=1;exitX=0.5;exitY=0;exitDx=0;exitDy=0;strokeColor=#457B9D;fillColor=#A8DADC;fontColor=#1D3557;endArrow=block;endFill=0;endSize=8;fontStyle=0;fontSize=10;" parent="OPeouW7zU2T9bfka8qwi-1" source="37gNFeQTkPEJshOFGkpo-8" edge="1">
          <mxGeometry relative="1" as="geometry">
            <mxPoint x="820" y="230" as="targetPoint" />
            <Array as="points">
              <mxPoint x="1145" y="290" />
              <mxPoint x="1145" y="280" />
              <mxPoint x="820" y="280" />
            </Array>
          </mxGeometry>
        </mxCell>
        <mxCell id="37gNFeQTkPEJshOFGkpo-8" value="&lt;p style=&quot;margin: 4px 0px 0px; font-size: 10px;&quot;&gt;&lt;span style=&quot;font-size: 10px;&quot;&gt;BlockingQueue&amp;lt;E&amp;gt;&lt;/span&gt;&lt;/p&gt;" style="verticalAlign=middle;align=center;overflow=fill;fontSize=10;fontFamily=Helvetica;html=1;fillColor=#d5e8d4;strokeColor=#82b366;fontStyle=0" parent="OPeouW7zU2T9bfka8qwi-1" vertex="1">
          <mxGeometry x="1090" y="290" width="110" height="20" as="geometry" />
        </mxCell>
        <mxCell id="oZgOsWf_ZYodiai_v7FT-7" style="edgeStyle=orthogonalEdgeStyle;rounded=0;sketch=0;orthogonalLoop=1;jettySize=auto;html=1;exitX=0.25;exitY=0;exitDx=0;exitDy=0;strokeColor=#457B9D;fillColor=#A8DADC;fontColor=#1D3557;endArrow=block;endFill=0;endSize=8;fontStyle=0;fontSize=10;entryX=1;entryY=1;entryDx=0;entryDy=0;" parent="OPeouW7zU2T9bfka8qwi-1" source="37gNFeQTkPEJshOFGkpo-9" target="37gNFeQTkPEJshOFGkpo-4" edge="1">
          <mxGeometry relative="1" as="geometry">
            <mxPoint x="890" y="309" as="targetPoint" />
            <Array as="points">
              <mxPoint x="1015" y="330" />
              <mxPoint x="865" y="330" />
            </Array>
          </mxGeometry>
        </mxCell>
        <mxCell id="oZgOsWf_ZYodiai_v7FT-32" style="edgeStyle=orthogonalEdgeStyle;rounded=0;sketch=0;orthogonalLoop=1;jettySize=auto;html=1;exitX=0.5;exitY=0;exitDx=0;exitDy=0;entryX=0.062;entryY=0.95;entryDx=0;entryDy=0;entryPerimeter=0;strokeColor=#457B9D;fillColor=#A8DADC;fontColor=#1D3557;endArrow=block;endFill=0;endSize=8;fontStyle=0;fontSize=10;" parent="OPeouW7zU2T9bfka8qwi-1" source="37gNFeQTkPEJshOFGkpo-9" target="37gNFeQTkPEJshOFGkpo-8" edge="1">
          <mxGeometry relative="1" as="geometry" />
        </mxCell>
        <mxCell id="37gNFeQTkPEJshOFGkpo-9" value="&lt;p style=&quot;margin: 4px 0px 0px; font-size: 10px;&quot;&gt;&lt;span style=&quot;font-size: 10px;&quot;&gt;BlockingDeque&amp;lt;E&amp;gt;&lt;/span&gt;&lt;/p&gt;" style="verticalAlign=middle;align=center;overflow=fill;fontSize=10;fontFamily=Helvetica;html=1;fillColor=#d5e8d4;strokeColor=#82b366;fontStyle=0" parent="OPeouW7zU2T9bfka8qwi-1" vertex="1">
          <mxGeometry x="982.02" y="350" width="97.98" height="20" as="geometry" />
        </mxCell>
        <mxCell id="oZgOsWf_ZYodiai_v7FT-47" style="edgeStyle=orthogonalEdgeStyle;rounded=0;sketch=0;orthogonalLoop=1;jettySize=auto;html=1;exitX=0.5;exitY=0;exitDx=0;exitDy=0;entryX=0.5;entryY=1;entryDx=0;entryDy=0;strokeColor=#457B9D;fillColor=#A8DADC;fontColor=#1D3557;endArrow=block;endFill=0;endSize=8;dashed=1;fontStyle=0;fontSize=10;" parent="OPeouW7zU2T9bfka8qwi-1" source="oZgOsWf_ZYodiai_v7FT-0" target="37gNFeQTkPEJshOFGkpo-4" edge="1">
          <mxGeometry relative="1" as="geometry">
            <Array as="points">
              <mxPoint x="805" y="430" />
            </Array>
          </mxGeometry>
        </mxCell>
        <mxCell id="oZgOsWf_ZYodiai_v7FT-0" value="&lt;p style=&quot;margin: 4px 0px 0px; font-size: 10px;&quot;&gt;&lt;span style=&quot;font-size: 10px;&quot;&gt;ArrayDeque&amp;lt;E&amp;gt;&lt;/span&gt;&lt;/p&gt;" style="verticalAlign=middle;align=center;overflow=fill;fontSize=10;fontFamily=Helvetica;html=1;strokeColor=#6c8ebf;fillColor=#dae8fc;fontStyle=0" parent="OPeouW7zU2T9bfka8qwi-1" vertex="1">
          <mxGeometry x="790" y="430" width="80" height="20" as="geometry" />
        </mxCell>
        <mxCell id="oZgOsWf_ZYodiai_v7FT-34" style="edgeStyle=orthogonalEdgeStyle;rounded=0;sketch=0;orthogonalLoop=1;jettySize=auto;html=1;exitX=0.5;exitY=0;exitDx=0;exitDy=0;entryX=0.885;entryY=1;entryDx=0;entryDy=0;entryPerimeter=0;strokeColor=#457B9D;fillColor=#A8DADC;fontColor=#1D3557;endArrow=block;endFill=0;endSize=8;fontStyle=0;fontSize=10;" parent="OPeouW7zU2T9bfka8qwi-1" source="oZgOsWf_ZYodiai_v7FT-3" target="37gNFeQTkPEJshOFGkpo-8" edge="1">
          <mxGeometry relative="1" as="geometry" />
        </mxCell>
        <mxCell id="oZgOsWf_ZYodiai_v7FT-3" value="&lt;p style=&quot;margin: 4px 0px 0px; font-size: 10px;&quot;&gt;&lt;span style=&quot;font-size: 10px;&quot;&gt;TransferQueue&amp;lt;E&amp;gt;&lt;/span&gt;&lt;/p&gt;" style="verticalAlign=middle;align=center;overflow=fill;fontSize=10;fontFamily=Helvetica;html=1;fillColor=#d5e8d4;strokeColor=#82b366;fontStyle=0" parent="OPeouW7zU2T9bfka8qwi-1" vertex="1">
          <mxGeometry x="1202.02" y="350" width="100" height="20" as="geometry" />
        </mxCell>
        <mxCell id="oZgOsWf_ZYodiai_v7FT-48" style="edgeStyle=orthogonalEdgeStyle;rounded=0;sketch=0;orthogonalLoop=1;jettySize=auto;html=1;exitX=0.75;exitY=0;exitDx=0;exitDy=0;entryX=0.5;entryY=1;entryDx=0;entryDy=0;strokeColor=#457B9D;fillColor=#A8DADC;fontColor=#1D3557;endArrow=block;endFill=0;endSize=8;dashed=1;fontStyle=0;fontSize=10;" parent="OPeouW7zU2T9bfka8qwi-1" source="oZgOsWf_ZYodiai_v7FT-12" target="37gNFeQTkPEJshOFGkpo-9" edge="1">
          <mxGeometry relative="1" as="geometry">
            <Array as="points">
              <mxPoint x="1058" y="490" />
              <mxPoint x="1030" y="490" />
              <mxPoint x="1030" y="500" />
              <mxPoint x="1031" y="500" />
            </Array>
          </mxGeometry>
        </mxCell>
        <mxCell id="oZgOsWf_ZYodiai_v7FT-12" value="&lt;p style=&quot;margin: 4px 0px 0px; font-size: 10px;&quot;&gt;&lt;span style=&quot;font-size: 10px;&quot;&gt;LinkedBlockingDeque&amp;lt;E&amp;gt;&lt;/span&gt;&lt;/p&gt;" style="verticalAlign=middle;align=center;overflow=fill;fontSize=10;fontFamily=Helvetica;html=1;strokeColor=#6c8ebf;fillColor=#dae8fc;fontStyle=0" parent="OPeouW7zU2T9bfka8qwi-1" vertex="1">
          <mxGeometry x="960" y="480" width="130" height="20" as="geometry" />
        </mxCell>
        <mxCell id="oZgOsWf_ZYodiai_v7FT-44" style="edgeStyle=orthogonalEdgeStyle;rounded=0;sketch=0;orthogonalLoop=1;jettySize=auto;html=1;exitX=0.5;exitY=0;exitDx=0;exitDy=0;entryX=0.562;entryY=0.95;entryDx=0;entryDy=0;entryPerimeter=0;strokeColor=#457B9D;fillColor=#A8DADC;fontColor=#1D3557;endArrow=block;endFill=0;endSize=8;dashed=1;fontStyle=0;fontSize=10;" parent="OPeouW7zU2T9bfka8qwi-1" source="oZgOsWf_ZYodiai_v7FT-13" target="37gNFeQTkPEJshOFGkpo-8" edge="1">
          <mxGeometry relative="1" as="geometry">
            <Array as="points">
              <mxPoint x="1220" y="530" />
              <mxPoint x="1152" y="530" />
            </Array>
          </mxGeometry>
        </mxCell>
        <mxCell id="oZgOsWf_ZYodiai_v7FT-13" value="&lt;p style=&quot;margin: 4px 0px 0px; font-size: 10px;&quot;&gt;&lt;span style=&quot;font-size: 10px;&quot;&gt;ArrayBlockingQueue&amp;lt;E&amp;gt;&lt;/span&gt;&lt;/p&gt;" style="verticalAlign=middle;align=center;overflow=fill;fontSize=10;fontFamily=Helvetica;html=1;strokeColor=#6c8ebf;fillColor=#dae8fc;fontStyle=0" parent="OPeouW7zU2T9bfka8qwi-1" vertex="1">
          <mxGeometry x="1160" y="550" width="120" height="20" as="geometry" />
        </mxCell>
        <mxCell id="oZgOsWf_ZYodiai_v7FT-29" style="edgeStyle=orthogonalEdgeStyle;rounded=0;sketch=0;orthogonalLoop=1;jettySize=auto;html=1;exitX=0.5;exitY=0;exitDx=0;exitDy=0;entryX=0.75;entryY=1;entryDx=0;entryDy=0;strokeColor=#457B9D;fillColor=#A8DADC;fontColor=#1D3557;endArrow=block;endFill=0;endSize=8;dashed=1;fontStyle=0;fontSize=10;" parent="OPeouW7zU2T9bfka8qwi-1" source="oZgOsWf_ZYodiai_v7FT-14" target="37gNFeQTkPEJshOFGkpo-4" edge="1">
          <mxGeometry relative="1" as="geometry">
            <Array as="points">
              <mxPoint x="950" y="410" />
              <mxPoint x="823" y="410" />
            </Array>
          </mxGeometry>
        </mxCell>
        <mxCell id="oZgOsWf_ZYodiai_v7FT-14" value="&lt;p style=&quot;margin: 4px 0px 0px; font-size: 10px;&quot;&gt;&lt;span style=&quot;font-size: 10px;&quot;&gt;ConcurrentLinkedDeque&amp;lt;E&amp;gt;&lt;/span&gt;&lt;/p&gt;" style="verticalAlign=middle;align=center;overflow=fill;fontSize=10;fontFamily=Helvetica;html=1;strokeColor=#6c8ebf;fillColor=#dae8fc;fontStyle=0" parent="OPeouW7zU2T9bfka8qwi-1" vertex="1">
          <mxGeometry x="880" y="430" width="140" height="20" as="geometry" />
        </mxCell>
        <mxCell id="oZgOsWf_ZYodiai_v7FT-54" style="edgeStyle=orthogonalEdgeStyle;rounded=0;sketch=0;orthogonalLoop=1;jettySize=auto;html=1;exitX=0.5;exitY=0;exitDx=0;exitDy=0;strokeColor=#457B9D;fillColor=#A8DADC;fontColor=#1D3557;endArrow=block;endFill=0;endSize=8;dashed=1;fontStyle=0;fontSize=10;" parent="OPeouW7zU2T9bfka8qwi-1" source="oZgOsWf_ZYodiai_v7FT-16" edge="1">
          <mxGeometry relative="1" as="geometry">
            <mxPoint x="830" y="230" as="targetPoint" />
            <Array as="points">
              <mxPoint x="1349" y="270" />
              <mxPoint x="830" y="270" />
            </Array>
            <mxPoint x="1372.5" y="480" as="sourcePoint" />
          </mxGeometry>
        </mxCell>
        <mxCell id="oZgOsWf_ZYodiai_v7FT-16" value="&lt;p style=&quot;margin: 4px 0px 0px; font-size: 10px;&quot;&gt;&lt;span style=&quot;font-size: 10px;&quot;&gt;ConcurrentLinkedQueue&amp;lt;E&amp;gt;&lt;/span&gt;&lt;/p&gt;" style="verticalAlign=middle;align=center;overflow=fill;fontSize=10;fontFamily=Helvetica;html=1;strokeColor=#6c8ebf;fillColor=#dae8fc;fontStyle=0" parent="OPeouW7zU2T9bfka8qwi-1" vertex="1">
          <mxGeometry x="1279.04" y="480" width="140" height="20" as="geometry" />
        </mxCell>
        <mxCell id="oZgOsWf_ZYodiai_v7FT-46" style="edgeStyle=orthogonalEdgeStyle;rounded=0;sketch=0;orthogonalLoop=1;jettySize=auto;html=1;exitX=0.5;exitY=0;exitDx=0;exitDy=0;entryX=0.75;entryY=1;entryDx=0;entryDy=0;strokeColor=#457B9D;fillColor=#A8DADC;fontColor=#1D3557;endArrow=block;endFill=0;endSize=8;dashed=1;fontStyle=0;fontSize=10;" parent="OPeouW7zU2T9bfka8qwi-1" source="oZgOsWf_ZYodiai_v7FT-35" target="37gNFeQTkPEJshOFGkpo-8" edge="1">
          <mxGeometry relative="1" as="geometry">
            <Array as="points">
              <mxPoint x="1355" y="520" />
              <mxPoint x="1173" y="520" />
            </Array>
          </mxGeometry>
        </mxCell>
        <mxCell id="oZgOsWf_ZYodiai_v7FT-35" value="&lt;p style=&quot;margin: 4px 0px 0px; font-size: 10px;&quot;&gt;&lt;span style=&quot;font-size: 10px;&quot;&gt;LinkedBlockingQueue&amp;lt;E&amp;gt;&lt;/span&gt;&lt;/p&gt;" style="verticalAlign=middle;align=center;overflow=fill;fontSize=10;fontFamily=Helvetica;html=1;strokeColor=#6c8ebf;fillColor=#dae8fc;fontStyle=0" parent="OPeouW7zU2T9bfka8qwi-1" vertex="1">
          <mxGeometry x="1290" y="550" width="130" height="20" as="geometry" />
        </mxCell>
        <mxCell id="oZgOsWf_ZYodiai_v7FT-43" style="edgeStyle=orthogonalEdgeStyle;rounded=0;sketch=0;orthogonalLoop=1;jettySize=auto;html=1;exitX=0.5;exitY=0;exitDx=0;exitDy=0;entryX=0.423;entryY=1;entryDx=0;entryDy=0;entryPerimeter=0;strokeColor=#457B9D;fillColor=#A8DADC;fontColor=#1D3557;endArrow=block;endFill=0;endSize=8;dashed=1;fontStyle=0;fontSize=10;" parent="OPeouW7zU2T9bfka8qwi-1" source="oZgOsWf_ZYodiai_v7FT-36" target="37gNFeQTkPEJshOFGkpo-8" edge="1">
          <mxGeometry relative="1" as="geometry">
            <Array as="points">
              <mxPoint x="1090" y="530" />
              <mxPoint x="1137" y="530" />
            </Array>
          </mxGeometry>
        </mxCell>
        <mxCell id="oZgOsWf_ZYodiai_v7FT-36" value="&lt;p style=&quot;margin: 4px 0px 0px; font-size: 10px;&quot;&gt;&lt;span style=&quot;font-size: 10px;&quot;&gt;SynchronousQueue&amp;lt;E&amp;gt;&lt;/span&gt;&lt;/p&gt;" style="verticalAlign=middle;align=center;overflow=fill;fontSize=10;fontFamily=Helvetica;html=1;strokeColor=#6c8ebf;fillColor=#dae8fc;fontStyle=0" parent="OPeouW7zU2T9bfka8qwi-1" vertex="1">
          <mxGeometry x="1030" y="550" width="120" height="20" as="geometry" />
        </mxCell>
        <mxCell id="oZgOsWf_ZYodiai_v7FT-42" style="edgeStyle=orthogonalEdgeStyle;rounded=0;sketch=0;orthogonalLoop=1;jettySize=auto;html=1;exitX=0.5;exitY=0;exitDx=0;exitDy=0;entryX=0.208;entryY=1;entryDx=0;entryDy=0;entryPerimeter=0;strokeColor=#457B9D;fillColor=#A8DADC;fontColor=#1D3557;endArrow=block;endFill=0;endSize=8;dashed=1;fontStyle=0;fontSize=10;" parent="OPeouW7zU2T9bfka8qwi-1" source="oZgOsWf_ZYodiai_v7FT-40" target="37gNFeQTkPEJshOFGkpo-8" edge="1">
          <mxGeometry relative="1" as="geometry">
            <Array as="points">
              <mxPoint x="975" y="520" />
              <mxPoint x="1113" y="520" />
            </Array>
          </mxGeometry>
        </mxCell>
        <mxCell id="oZgOsWf_ZYodiai_v7FT-40" value="&lt;p style=&quot;margin: 4px 0px 0px; font-size: 10px;&quot;&gt;&lt;span style=&quot;font-size: 10px;&quot;&gt;DelayQueue&amp;lt;E&amp;gt;&lt;/span&gt;&lt;/p&gt;" style="verticalAlign=middle;align=center;overflow=fill;fontSize=10;fontFamily=Helvetica;html=1;strokeColor=#6c8ebf;fillColor=#dae8fc;fontStyle=0" parent="OPeouW7zU2T9bfka8qwi-1" vertex="1">
          <mxGeometry x="930" y="550" width="90" height="20" as="geometry" />
        </mxCell>
        <mxCell id="oZgOsWf_ZYodiai_v7FT-51" style="edgeStyle=orthogonalEdgeStyle;rounded=0;sketch=0;orthogonalLoop=1;jettySize=auto;html=1;exitX=0.5;exitY=0;exitDx=0;exitDy=0;entryX=0.5;entryY=1;entryDx=0;entryDy=0;strokeColor=#457B9D;fillColor=#A8DADC;fontColor=#1D3557;endArrow=block;endFill=0;endSize=8;dashed=1;fontStyle=0;fontSize=10;" parent="OPeouW7zU2T9bfka8qwi-1" source="oZgOsWf_ZYodiai_v7FT-50" target="oZgOsWf_ZYodiai_v7FT-3" edge="1">
          <mxGeometry relative="1" as="geometry" />
        </mxCell>
        <mxCell id="oZgOsWf_ZYodiai_v7FT-50" value="&lt;p style=&quot;margin: 4px 0px 0px; font-size: 10px;&quot;&gt;&lt;span style=&quot;font-size: 10px;&quot;&gt;LinkedTransferQueue&amp;lt;E&amp;gt;&lt;/span&gt;&lt;/p&gt;" style="verticalAlign=middle;align=center;overflow=fill;fontSize=10;fontFamily=Helvetica;html=1;strokeColor=#6c8ebf;fillColor=#dae8fc;fontStyle=0" parent="OPeouW7zU2T9bfka8qwi-1" vertex="1">
          <mxGeometry x="1192.02" y="430" width="120" height="20" as="geometry" />
        </mxCell>
        <mxCell id="BzN7DT4VpjljtK52MReR-2" style="edgeStyle=orthogonalEdgeStyle;rounded=0;sketch=0;orthogonalLoop=1;jettySize=auto;html=1;exitX=0.5;exitY=0;exitDx=0;exitDy=0;entryX=0.25;entryY=1;entryDx=0;entryDy=0;strokeColor=#457B9D;fillColor=#A8DADC;fontColor=#1D3557;endArrow=block;endFill=0;endSize=8;dashed=1;fontStyle=0;fontSize=10;" parent="OPeouW7zU2T9bfka8qwi-1" source="BzN7DT4VpjljtK52MReR-0" target="37gNFeQTkPEJshOFGkpo-3" edge="1">
          <mxGeometry relative="1" as="geometry">
            <Array as="points">
              <mxPoint x="715" y="260" />
              <mxPoint x="788" y="260" />
            </Array>
          </mxGeometry>
        </mxCell>
        <mxCell id="BzN7DT4VpjljtK52MReR-0" value="&lt;p style=&quot;margin: 4px 0px 0px; font-size: 10px;&quot;&gt;&lt;span style=&quot;font-size: 10px;&quot;&gt;PriorityQueue&amp;lt;E&amp;gt;&lt;/span&gt;&lt;/p&gt;" style="verticalAlign=middle;align=center;overflow=fill;fontSize=10;fontFamily=Helvetica;html=1;strokeColor=#6c8ebf;fillColor=#dae8fc;fontStyle=0" parent="OPeouW7zU2T9bfka8qwi-1" vertex="1">
          <mxGeometry x="670" y="290" width="90" height="20" as="geometry" />
        </mxCell>
        <mxCell id="5WqwSF33o4IKvHc-D1Ey-1" style="edgeStyle=orthogonalEdgeStyle;rounded=0;sketch=0;orthogonalLoop=1;jettySize=auto;html=1;exitX=0.5;exitY=0;exitDx=0;exitDy=0;strokeColor=#457B9D;fillColor=#A8DADC;fontColor=#1D3557;endArrow=block;endFill=0;endSize=8;dashed=1;fontStyle=0;fontSize=10;entryX=0;entryY=1;entryDx=0;entryDy=0;" parent="OPeouW7zU2T9bfka8qwi-1" target="37gNFeQTkPEJshOFGkpo-2" edge="1">
          <mxGeometry relative="1" as="geometry">
            <Array as="points">
              <mxPoint x="1367" y="590" />
              <mxPoint x="536" y="590" />
              <mxPoint x="536" y="330" />
              <mxPoint x="613" y="330" />
            </Array>
            <mxPoint x="1367.02" y="620" as="sourcePoint" />
            <mxPoint x="639" y="230" as="targetPoint" />
          </mxGeometry>
        </mxCell>
        <mxCell id="5WqwSF33o4IKvHc-D1Ey-0" value="&lt;p style=&quot;margin: 4px 0px 0px; font-size: 10px;&quot;&gt;&lt;span style=&quot;font-size: 10px;&quot;&gt;CopyOnWriteArrayList&amp;lt;E&amp;gt;&lt;/span&gt;&lt;/p&gt;" style="verticalAlign=middle;align=center;overflow=fill;fontSize=10;fontFamily=Helvetica;html=1;strokeColor=#6c8ebf;fillColor=#dae8fc;fontStyle=0" parent="OPeouW7zU2T9bfka8qwi-1" vertex="1">
          <mxGeometry x="1284.04" y="620" width="130" height="20" as="geometry" />
        </mxCell>
        <mxCell id="5WqwSF33o4IKvHc-D1Ey-3" style="edgeStyle=orthogonalEdgeStyle;rounded=0;sketch=0;orthogonalLoop=1;jettySize=auto;html=1;exitX=0.5;exitY=0;exitDx=0;exitDy=0;entryX=0.25;entryY=1;entryDx=0;entryDy=0;strokeColor=#457B9D;fillColor=#A8DADC;fontColor=#1D3557;endArrow=block;endFill=0;endSize=8;fontStyle=0;fontSize=10;" parent="OPeouW7zU2T9bfka8qwi-1" source="5WqwSF33o4IKvHc-D1Ey-2" target="37gNFeQTkPEJshOFGkpo-1" edge="1">
          <mxGeometry relative="1" as="geometry" />
        </mxCell>
        <mxCell id="5WqwSF33o4IKvHc-D1Ey-2" value="&lt;p style=&quot;margin: 4px 0px 0px; font-size: 10px;&quot;&gt;&lt;span style=&quot;font-size: 10px;&quot;&gt;Set&amp;lt;E&amp;gt;&lt;/span&gt;&lt;/p&gt;" style="verticalAlign=middle;align=center;overflow=fill;fontSize=10;fontFamily=Helvetica;html=1;fillColor=#d5e8d4;strokeColor=#82b366;fontStyle=0" parent="OPeouW7zU2T9bfka8qwi-1" vertex="1">
          <mxGeometry x="445" y="210" width="70" height="20" as="geometry" />
        </mxCell>
        <mxCell id="22r1N0NHHugm1OHg4VpL-8" style="edgeStyle=orthogonalEdgeStyle;rounded=0;sketch=0;orthogonalLoop=1;jettySize=auto;html=1;exitX=0.5;exitY=0;exitDx=0;exitDy=0;entryX=0.25;entryY=1;entryDx=0;entryDy=0;strokeColor=#457B9D;fillColor=#A8DADC;fontFamily=Helvetica;fontColor=#1D3557;endArrow=block;endFill=0;endSize=8;fontStyle=0;fontSize=10;" parent="OPeouW7zU2T9bfka8qwi-1" source="5WqwSF33o4IKvHc-D1Ey-4" target="5WqwSF33o4IKvHc-D1Ey-2" edge="1">
          <mxGeometry relative="1" as="geometry">
            <Array as="points">
              <mxPoint x="395" y="280" />
              <mxPoint x="463" y="280" />
            </Array>
          </mxGeometry>
        </mxCell>
        <mxCell id="5WqwSF33o4IKvHc-D1Ey-4" value="&lt;p style=&quot;margin: 4px 0px 0px; font-size: 10px;&quot;&gt;&lt;span style=&quot;font-size: 10px;&quot;&gt;SortedSet&amp;lt;E&amp;gt;&lt;/span&gt;&lt;/p&gt;" style="verticalAlign=middle;align=center;overflow=fill;fontSize=10;fontFamily=Helvetica;html=1;fillColor=#d5e8d4;strokeColor=#82b366;fontStyle=0" parent="OPeouW7zU2T9bfka8qwi-1" vertex="1">
          <mxGeometry x="360" y="290" width="70" height="20" as="geometry" />
        </mxCell>
        <mxCell id="22r1N0NHHugm1OHg4VpL-9" style="edgeStyle=orthogonalEdgeStyle;rounded=0;sketch=0;orthogonalLoop=1;jettySize=auto;html=1;exitX=0.5;exitY=0;exitDx=0;exitDy=0;entryX=0.5;entryY=1;entryDx=0;entryDy=0;strokeColor=#457B9D;fillColor=#A8DADC;fontFamily=Helvetica;fontColor=#1D3557;endArrow=block;endFill=0;endSize=8;fontStyle=0;fontSize=10;" parent="OPeouW7zU2T9bfka8qwi-1" source="22r1N0NHHugm1OHg4VpL-2" target="5WqwSF33o4IKvHc-D1Ey-4" edge="1">
          <mxGeometry relative="1" as="geometry" />
        </mxCell>
        <mxCell id="22r1N0NHHugm1OHg4VpL-2" value="&lt;p style=&quot;margin: 4px 0px 0px; font-size: 10px;&quot;&gt;&lt;span style=&quot;font-size: 10px;&quot;&gt;NavigableSet&amp;lt;E&amp;gt;&lt;/span&gt;&lt;/p&gt;" style="verticalAlign=middle;align=center;overflow=fill;fontSize=10;fontFamily=Helvetica;html=1;fillColor=#d5e8d4;strokeColor=#82b366;fontStyle=0" parent="OPeouW7zU2T9bfka8qwi-1" vertex="1">
          <mxGeometry x="350" y="350" width="90" height="20" as="geometry" />
        </mxCell>
        <mxCell id="22r1N0NHHugm1OHg4VpL-7" style="edgeStyle=orthogonalEdgeStyle;rounded=0;sketch=0;orthogonalLoop=1;jettySize=auto;html=1;exitX=0.5;exitY=0;exitDx=0;exitDy=0;entryX=0.5;entryY=1;entryDx=0;entryDy=0;strokeColor=#457B9D;fillColor=#A8DADC;fontFamily=Helvetica;fontColor=#1D3557;endArrow=block;endFill=0;endSize=8;dashed=1;fontStyle=0;fontSize=10;" parent="OPeouW7zU2T9bfka8qwi-1" source="22r1N0NHHugm1OHg4VpL-3" target="5WqwSF33o4IKvHc-D1Ey-2" edge="1">
          <mxGeometry relative="1" as="geometry" />
        </mxCell>
        <mxCell id="22r1N0NHHugm1OHg4VpL-3" value="&lt;p style=&quot;margin: 4px 0px 0px; font-size: 10px;&quot;&gt;&lt;span style=&quot;font-size: 10px;&quot;&gt;HashSet&amp;lt;E&amp;gt;&lt;/span&gt;&lt;/p&gt;" style="verticalAlign=middle;align=center;overflow=fill;fontSize=10;fontFamily=Helvetica;html=1;strokeColor=#6c8ebf;fillColor=#dae8fc;fontStyle=0" parent="OPeouW7zU2T9bfka8qwi-1" vertex="1">
          <mxGeometry x="445" y="430" width="70" height="20" as="geometry" />
        </mxCell>
        <mxCell id="22r1N0NHHugm1OHg4VpL-6" style="edgeStyle=orthogonalEdgeStyle;rounded=0;sketch=0;orthogonalLoop=1;jettySize=auto;html=1;exitX=0.5;exitY=0;exitDx=0;exitDy=0;entryX=0.5;entryY=1;entryDx=0;entryDy=0;strokeColor=#457B9D;fillColor=#A8DADC;fontFamily=Helvetica;fontColor=#1D3557;endArrow=block;endFill=0;endSize=8;fontStyle=0;fontSize=10;" parent="OPeouW7zU2T9bfka8qwi-1" source="22r1N0NHHugm1OHg4VpL-4" target="22r1N0NHHugm1OHg4VpL-3" edge="1">
          <mxGeometry relative="1" as="geometry" />
        </mxCell>
        <mxCell id="22r1N0NHHugm1OHg4VpL-4" value="&lt;p style=&quot;margin: 4px 0px 0px; font-size: 10px;&quot;&gt;&lt;span style=&quot;font-size: 10px;&quot;&gt;LinkedHashSet&amp;lt;E&amp;gt;&lt;/span&gt;&lt;/p&gt;" style="verticalAlign=middle;align=center;overflow=fill;fontSize=10;fontFamily=Helvetica;html=1;strokeColor=#6c8ebf;fillColor=#dae8fc;fontStyle=0" parent="OPeouW7zU2T9bfka8qwi-1" vertex="1">
          <mxGeometry x="430" y="480" width="100" height="20" as="geometry" />
        </mxCell>
        <mxCell id="22r1N0NHHugm1OHg4VpL-10" style="edgeStyle=orthogonalEdgeStyle;rounded=0;sketch=0;orthogonalLoop=1;jettySize=auto;html=1;exitX=0.5;exitY=0;exitDx=0;exitDy=0;entryX=0.5;entryY=1;entryDx=0;entryDy=0;strokeColor=#457B9D;fillColor=#A8DADC;fontFamily=Helvetica;fontColor=#1D3557;endArrow=block;endFill=0;endSize=8;dashed=1;fontStyle=0;fontSize=10;" parent="OPeouW7zU2T9bfka8qwi-1" source="22r1N0NHHugm1OHg4VpL-5" target="22r1N0NHHugm1OHg4VpL-2" edge="1">
          <mxGeometry relative="1" as="geometry" />
        </mxCell>
        <mxCell id="22r1N0NHHugm1OHg4VpL-5" value="&lt;p style=&quot;margin: 4px 0px 0px; font-size: 10px;&quot;&gt;&lt;span style=&quot;font-size: 10px;&quot;&gt;TreeSet&amp;lt;E&amp;gt;&lt;/span&gt;&lt;/p&gt;" style="verticalAlign=middle;align=center;overflow=fill;fontSize=10;fontFamily=Helvetica;html=1;strokeColor=#6c8ebf;fillColor=#dae8fc;fontStyle=0" parent="OPeouW7zU2T9bfka8qwi-1" vertex="1">
          <mxGeometry x="360" y="430" width="70" height="20" as="geometry" />
        </mxCell>
        <mxCell id="7vIwVqOuETclE32X0ltl-2" style="edgeStyle=orthogonalEdgeStyle;rounded=0;sketch=0;orthogonalLoop=1;jettySize=auto;html=1;exitX=0.5;exitY=0;exitDx=0;exitDy=0;entryX=0.25;entryY=1;entryDx=0;entryDy=0;strokeColor=#457B9D;fillColor=#A8DADC;fontFamily=Helvetica;fontColor=#1D3557;endArrow=block;endFill=0;endSize=8;dashed=1;fontStyle=0;fontSize=10;" parent="OPeouW7zU2T9bfka8qwi-1" source="7vIwVqOuETclE32X0ltl-0" target="22r1N0NHHugm1OHg4VpL-2" edge="1">
          <mxGeometry relative="1" as="geometry">
            <Array as="points">
              <mxPoint x="1207" y="600" />
              <mxPoint x="350" y="600" />
              <mxPoint x="350" y="410" />
              <mxPoint x="373" y="410" />
            </Array>
          </mxGeometry>
        </mxCell>
        <mxCell id="7vIwVqOuETclE32X0ltl-0" value="&lt;p style=&quot;margin: 4px 0px 0px; font-size: 10px;&quot;&gt;&lt;span style=&quot;font-size: 10px;&quot;&gt;ConcurrentSkipListSet&amp;lt;E&amp;gt;&lt;/span&gt;&lt;/p&gt;" style="verticalAlign=middle;align=center;overflow=fill;fontSize=10;fontFamily=Helvetica;html=1;strokeColor=#6c8ebf;fillColor=#dae8fc;fontStyle=0" parent="OPeouW7zU2T9bfka8qwi-1" vertex="1">
          <mxGeometry x="1132.02" y="620" width="130" height="20" as="geometry" />
        </mxCell>
        <mxCell id="7vIwVqOuETclE32X0ltl-7" style="edgeStyle=orthogonalEdgeStyle;rounded=0;sketch=0;orthogonalLoop=1;jettySize=auto;html=1;exitX=0.5;exitY=0;exitDx=0;exitDy=0;strokeColor=#457B9D;fillColor=#A8DADC;fontFamily=Helvetica;fontColor=#1D3557;endArrow=block;endFill=0;endSize=8;dashed=1;fontStyle=0;fontSize=10;entryX=0;entryY=1;entryDx=0;entryDy=0;" parent="OPeouW7zU2T9bfka8qwi-1" target="5WqwSF33o4IKvHc-D1Ey-2" edge="1">
          <mxGeometry relative="1" as="geometry">
            <Array as="points">
              <mxPoint x="1065" y="610" />
              <mxPoint x="340" y="610" />
              <mxPoint x="340" y="260" />
              <mxPoint x="445" y="260" />
            </Array>
            <mxPoint x="1065" y="620" as="sourcePoint" />
            <mxPoint x="451" y="230" as="targetPoint" />
          </mxGeometry>
        </mxCell>
        <mxCell id="7vIwVqOuETclE32X0ltl-3" value="&lt;p style=&quot;margin: 4px 0px 0px; font-size: 10px;&quot;&gt;&lt;span style=&quot;font-size: 10px;&quot;&gt;CopyOnWriteArraySet&amp;lt;E&amp;gt;&lt;/span&gt;&lt;/p&gt;" style="verticalAlign=middle;align=center;overflow=fill;fontSize=10;fontFamily=Helvetica;html=1;strokeColor=#6c8ebf;fillColor=#dae8fc;fontStyle=0" parent="OPeouW7zU2T9bfka8qwi-1" vertex="1">
          <mxGeometry x="982.02" y="620" width="130" height="20" as="geometry" />
        </mxCell>
        <mxCell id="e8vfD4kKKdB3J9nJe2-T-2" style="edgeStyle=orthogonalEdgeStyle;rounded=0;sketch=0;orthogonalLoop=1;jettySize=auto;html=1;exitX=0.5;exitY=0;exitDx=0;exitDy=0;endArrow=block;endFill=0;endSize=8;fillColor=#A8DADC;fontFamily=Helvetica;fontColor=#1D3557;strokeColor=#999999;fontStyle=0;fontSize=10;" parent="OPeouW7zU2T9bfka8qwi-1" source="e8vfD4kKKdB3J9nJe2-T-0" target="37gNFeQTkPEJshOFGkpo-5" edge="1">
          <mxGeometry relative="1" as="geometry" />
        </mxCell>
        <mxCell id="e8vfD4kKKdB3J9nJe2-T-0" value="&lt;p style=&quot;margin: 4px 0px 0px; font-size: 10px;&quot;&gt;&lt;span style=&quot;font-size: 10px;&quot;&gt;Stack&amp;lt;E&amp;gt;&lt;/span&gt;&lt;/p&gt;" style="verticalAlign=middle;align=center;overflow=fill;fontSize=10;fontFamily=Helvetica;html=1;strokeColor=#457B9D;fontColor=#1D3557;fillColor=#999999;fontStyle=0" parent="OPeouW7zU2T9bfka8qwi-1" vertex="1">
          <mxGeometry x="542.5" y="480" width="60" height="20" as="geometry" />
        </mxCell>
        <mxCell id="91fOL18LwLFb6Ht3d7vs-0" value="" style="rounded=0;whiteSpace=wrap;html=1;fillColor=#dae8fc;strokeColor=#6c8ebf;fontSize=10;" parent="OPeouW7zU2T9bfka8qwi-1" vertex="1">
          <mxGeometry x="320" y="1030" width="30" height="10" as="geometry" />
        </mxCell>
        <mxCell id="91fOL18LwLFb6Ht3d7vs-1" value="" style="rounded=0;whiteSpace=wrap;html=1;fillColor=#d5e8d4;strokeColor=#82b366;fontSize=10;" parent="OPeouW7zU2T9bfka8qwi-1" vertex="1">
          <mxGeometry x="350" y="1030" width="350" height="10" as="geometry" />
        </mxCell>
        <mxCell id="91fOL18LwLFb6Ht3d7vs-2" value="" style="rounded=0;whiteSpace=wrap;html=1;fillColor=#e1d5e7;strokeColor=#9673a6;fontSize=10;" parent="OPeouW7zU2T9bfka8qwi-1" vertex="1">
          <mxGeometry x="700" y="1030" width="160" height="10" as="geometry" />
        </mxCell>
        <mxCell id="91fOL18LwLFb6Ht3d7vs-3" value="" style="rounded=0;whiteSpace=wrap;html=1;fillColor=#f8cecc;strokeColor=#b85450;fontSize=10;" parent="OPeouW7zU2T9bfka8qwi-1" vertex="1">
          <mxGeometry x="860" y="1030" width="40" height="10" as="geometry" />
        </mxCell>
        <mxCell id="91fOL18LwLFb6Ht3d7vs-4" value="" style="endArrow=none;html=1;rounded=0;strokeColor=#7EA6E0;fontSize=10;" parent="OPeouW7zU2T9bfka8qwi-1" edge="1">
          <mxGeometry width="50" height="50" relative="1" as="geometry">
            <mxPoint x="320" y="1030" as="sourcePoint" />
            <mxPoint x="320" y="990" as="targetPoint" />
          </mxGeometry>
        </mxCell>
        <mxCell id="91fOL18LwLFb6Ht3d7vs-5" value="" style="endArrow=none;html=1;rounded=0;strokeColor=#7EA6E0;fontSize=10;" parent="OPeouW7zU2T9bfka8qwi-1" edge="1">
          <mxGeometry width="50" height="50" relative="1" as="geometry">
            <mxPoint x="860" y="1080" as="sourcePoint" />
            <mxPoint x="860" y="1030" as="targetPoint" />
          </mxGeometry>
        </mxCell>
        <mxCell id="91fOL18LwLFb6Ht3d7vs-6" value="" style="endArrow=none;html=1;rounded=0;strokeColor=#7EA6E0;fontSize=10;" parent="OPeouW7zU2T9bfka8qwi-1" edge="1">
          <mxGeometry width="50" height="50" relative="1" as="geometry">
            <mxPoint x="700" y="1040" as="sourcePoint" />
            <mxPoint x="700" y="990" as="targetPoint" />
          </mxGeometry>
        </mxCell>
        <mxCell id="91fOL18LwLFb6Ht3d7vs-7" value="" style="endArrow=none;html=1;rounded=0;strokeColor=#7EA6E0;fontSize=10;" parent="OPeouW7zU2T9bfka8qwi-1" edge="1">
          <mxGeometry width="50" height="50" relative="1" as="geometry">
            <mxPoint x="350" y="1080" as="sourcePoint" />
            <mxPoint x="350" y="1030" as="targetPoint" />
          </mxGeometry>
        </mxCell>
        <mxCell id="91fOL18LwLFb6Ht3d7vs-8" value="" style="endArrow=none;html=1;rounded=0;strokeColor=#7EA6E0;fontSize=10;" parent="OPeouW7zU2T9bfka8qwi-1" edge="1">
          <mxGeometry width="50" height="50" relative="1" as="geometry">
            <mxPoint x="900" y="1040" as="sourcePoint" />
            <mxPoint x="900" y="990" as="targetPoint" />
          </mxGeometry>
        </mxCell>
        <mxCell id="91fOL18LwLFb6Ht3d7vs-9" value="A" style="text;html=1;align=center;verticalAlign=middle;resizable=0;points=[];autosize=1;strokeColor=none;fillColor=none;fontSize=10;" parent="OPeouW7zU2T9bfka8qwi-1" vertex="1">
          <mxGeometry x="299" y="960" width="30" height="30" as="geometry" />
        </mxCell>
        <mxCell id="91fOL18LwLFb6Ht3d7vs-10" value="B" style="text;html=1;align=center;verticalAlign=middle;resizable=0;points=[];autosize=1;strokeColor=none;fillColor=none;fontSize=10;" parent="OPeouW7zU2T9bfka8qwi-1" vertex="1">
          <mxGeometry x="330" y="1080" width="30" height="30" as="geometry" />
        </mxCell>
        <mxCell id="91fOL18LwLFb6Ht3d7vs-11" value="C" style="text;html=1;align=center;verticalAlign=middle;resizable=0;points=[];autosize=1;strokeColor=none;fillColor=none;fontSize=10;" parent="OPeouW7zU2T9bfka8qwi-1" vertex="1">
          <mxGeometry x="680" y="960" width="30" height="30" as="geometry" />
        </mxCell>
        <mxCell id="91fOL18LwLFb6Ht3d7vs-12" value="D" style="text;html=1;align=center;verticalAlign=middle;resizable=0;points=[];autosize=1;strokeColor=none;fillColor=none;fontSize=10;" parent="OPeouW7zU2T9bfka8qwi-1" vertex="1">
          <mxGeometry x="840" y="1080" width="30" height="30" as="geometry" />
        </mxCell>
        <mxCell id="91fOL18LwLFb6Ht3d7vs-13" value="E" style="text;html=1;align=center;verticalAlign=middle;resizable=0;points=[];autosize=1;strokeColor=none;fillColor=none;fontSize=10;" parent="OPeouW7zU2T9bfka8qwi-1" vertex="1">
          <mxGeometry x="875" y="960" width="30" height="30" as="geometry" />
        </mxCell>
        <mxCell id="91fOL18LwLFb6Ht3d7vs-15" value="10" style="text;html=1;align=center;verticalAlign=middle;resizable=0;points=[];autosize=1;strokeColor=none;fillColor=none;fontSize=10;" parent="OPeouW7zU2T9bfka8qwi-1" vertex="1">
          <mxGeometry x="345" y="1080" width="30" height="30" as="geometry" />
        </mxCell>
        <mxCell id="91fOL18LwLFb6Ht3d7vs-16" value="2/3 Integer.MAX_VALUE" style="text;html=1;align=center;verticalAlign=middle;resizable=0;points=[];autosize=1;strokeColor=none;fillColor=none;fontSize=10;" parent="OPeouW7zU2T9bfka8qwi-1" vertex="1">
          <mxGeometry x="700" y="960" width="130" height="30" as="geometry" />
        </mxCell>
        <mxCell id="91fOL18LwLFb6Ht3d7vs-18" value="MAX_ARRAY_SIZE" style="text;html=1;align=center;verticalAlign=middle;resizable=0;points=[];autosize=1;strokeColor=none;fillColor=none;fontSize=10;" parent="OPeouW7zU2T9bfka8qwi-1" vertex="1">
          <mxGeometry x="860" y="1080" width="110" height="30" as="geometry" />
        </mxCell>
        <mxCell id="91fOL18LwLFb6Ht3d7vs-19" value="Integer.MAX_VALUE" style="text;html=1;align=center;verticalAlign=middle;resizable=0;points=[];autosize=1;strokeColor=none;fillColor=none;fontSize=10;" parent="OPeouW7zU2T9bfka8qwi-1" vertex="1">
          <mxGeometry x="890" y="960" width="120" height="30" as="geometry" />
        </mxCell>
        <mxCell id="MgpoFwK91_9fQjLGym89-0" value="0" style="text;html=1;align=center;verticalAlign=middle;resizable=0;points=[];autosize=1;strokeColor=none;fillColor=none;fontSize=10;" parent="OPeouW7zU2T9bfka8qwi-1" vertex="1">
          <mxGeometry x="310" y="960" width="30" height="30" as="geometry" />
        </mxCell>
      </root>
    </mxGraphModel>
  </diagram>
  <diagram name="Map" id="b5b7bab2-c9e2-2cf4-8b2a-24fd1a2a6d21">
    <mxGraphModel dx="984" dy="659" grid="1" gridSize="10" guides="1" tooltips="1" connect="1" arrows="1" fold="1" page="1" pageScale="1" pageWidth="3300" pageHeight="4681" background="#ffffff" math="0" shadow="0">
      <root>
        <mxCell id="0" />
        <mxCell id="1" parent="0" />
        <mxCell id="FDBClDNrFTMyNbEmmahb-32" value="java.util" style="shape=umlFrame;whiteSpace=wrap;html=1;rounded=0;sketch=0;fontColor=#1D3557;align=center;width=70;height=20;fillColor=#B9E0A5;strokeColor=#97D077;fontSize=10;fontStyle=0" parent="1" vertex="1">
          <mxGeometry x="320" y="230" width="790" height="320" as="geometry" />
        </mxCell>
        <mxCell id="FDBClDNrFTMyNbEmmahb-31" value="java.util.concurrent" style="shape=umlFrame;whiteSpace=wrap;html=1;rounded=0;sketch=0;fontColor=#1D3557;align=center;width=120;height=20;fillColor=#B9E0A5;strokeColor=#97D077;fontSize=10;fontStyle=0" parent="1" vertex="1">
          <mxGeometry x="800" y="310" width="300" height="200" as="geometry" />
        </mxCell>
        <mxCell id="FDBClDNrFTMyNbEmmahb-13" style="edgeStyle=orthogonalEdgeStyle;rounded=0;orthogonalLoop=1;jettySize=auto;html=1;exitX=0.5;exitY=0;exitDx=0;exitDy=0;entryX=0.5;entryY=1;entryDx=0;entryDy=0;dashed=1;endSize=8;endArrow=block;endFill=0;labelBackgroundColor=#F1FAEE;strokeColor=#457B9D;fontColor=#1D3557;fontSize=10;fontStyle=0" parent="1" source="FDBClDNrFTMyNbEmmahb-1" target="FDBClDNrFTMyNbEmmahb-2" edge="1">
          <mxGeometry relative="1" as="geometry" />
        </mxCell>
        <mxCell id="FDBClDNrFTMyNbEmmahb-1" value="&lt;p style=&quot;margin: 4px 0px 0px; font-size: 10px;&quot;&gt;&lt;span style=&quot;font-size: 10px;&quot;&gt;HashMap&amp;lt;K, V&amp;gt;&lt;/span&gt;&lt;/p&gt;" style="verticalAlign=middle;align=center;overflow=fill;fontSize=10;fontFamily=Helvetica;html=1;strokeColor=#6c8ebf;fillColor=#dae8fc;fontStyle=0" parent="1" vertex="1">
          <mxGeometry x="565" y="470" width="80" height="20" as="geometry" />
        </mxCell>
        <mxCell id="FDBClDNrFTMyNbEmmahb-2" value="&lt;p style=&quot;margin: 4px 0px 0px; font-size: 10px;&quot;&gt;&lt;span style=&quot;font-size: 10px;&quot;&gt;Map&amp;lt;K, V&amp;gt;&lt;/span&gt;&lt;/p&gt;" style="verticalAlign=middle;align=center;overflow=fill;fontSize=10;fontFamily=Helvetica;html=1;fillColor=#d5e8d4;strokeColor=#82b366;fontStyle=0" parent="1" vertex="1">
          <mxGeometry x="560" y="240" width="90" height="20" as="geometry" />
        </mxCell>
        <mxCell id="FDBClDNrFTMyNbEmmahb-21" style="edgeStyle=orthogonalEdgeStyle;rounded=0;sketch=0;orthogonalLoop=1;jettySize=auto;html=1;exitX=0.5;exitY=0;exitDx=0;exitDy=0;entryX=0.75;entryY=1;entryDx=0;entryDy=0;labelBackgroundColor=#F1FAEE;strokeColor=#457B9D;fontColor=#1D3557;endArrow=block;endFill=0;endSize=8;fontSize=10;fontStyle=0" parent="1" source="FDBClDNrFTMyNbEmmahb-3" target="FDBClDNrFTMyNbEmmahb-2" edge="1">
          <mxGeometry relative="1" as="geometry">
            <Array as="points">
              <mxPoint x="680" y="300" />
              <mxPoint x="563" y="300" />
            </Array>
          </mxGeometry>
        </mxCell>
        <mxCell id="FDBClDNrFTMyNbEmmahb-3" value="&lt;p style=&quot;margin: 4px 0px 0px; font-size: 10px;&quot;&gt;&lt;span style=&quot;font-size: 10px;&quot;&gt;SortedMap&amp;lt;K, V&amp;gt;&lt;/span&gt;&lt;/p&gt;" style="verticalAlign=middle;align=center;overflow=fill;fontSize=10;fontFamily=Helvetica;html=1;fillColor=#d5e8d4;strokeColor=#82b366;fontStyle=0" parent="1" vertex="1">
          <mxGeometry x="660" y="320" width="120" height="20" as="geometry" />
        </mxCell>
        <mxCell id="FDBClDNrFTMyNbEmmahb-18" style="edgeStyle=orthogonalEdgeStyle;rounded=0;orthogonalLoop=1;jettySize=auto;html=1;exitX=0.5;exitY=0;exitDx=0;exitDy=0;entryX=0.5;entryY=1;entryDx=0;entryDy=0;endArrow=block;endFill=0;endSize=8;labelBackgroundColor=#F1FAEE;strokeColor=#457B9D;fontColor=#1D3557;fontSize=10;fontStyle=0" parent="1" source="FDBClDNrFTMyNbEmmahb-4" target="FDBClDNrFTMyNbEmmahb-3" edge="1">
          <mxGeometry relative="1" as="geometry" />
        </mxCell>
        <mxCell id="FDBClDNrFTMyNbEmmahb-4" value="&lt;p style=&quot;margin: 4px 0px 0px; font-size: 10px;&quot;&gt;&lt;span style=&quot;font-size: 10px;&quot;&gt;NavigableMap&amp;lt;K, V&amp;gt;&lt;/span&gt;&lt;/p&gt;" style="verticalAlign=middle;align=center;overflow=fill;fontSize=10;fontFamily=Helvetica;html=1;fillColor=#d5e8d4;strokeColor=#82b366;fontStyle=0" parent="1" vertex="1">
          <mxGeometry x="650" y="370" width="140" height="20" as="geometry" />
        </mxCell>
        <mxCell id="FDBClDNrFTMyNbEmmahb-11" style="edgeStyle=orthogonalEdgeStyle;rounded=0;orthogonalLoop=1;jettySize=auto;html=1;exitX=0.5;exitY=0;exitDx=0;exitDy=0;entryX=0.5;entryY=1;entryDx=0;entryDy=0;dashed=1;endArrow=block;endFill=0;endSize=8;labelBackgroundColor=#F1FAEE;strokeColor=#457B9D;fontColor=#1D3557;fontSize=10;fontStyle=0" parent="1" source="FDBClDNrFTMyNbEmmahb-5" target="FDBClDNrFTMyNbEmmahb-4" edge="1">
          <mxGeometry relative="1" as="geometry" />
        </mxCell>
        <mxCell id="FDBClDNrFTMyNbEmmahb-5" value="&lt;p style=&quot;margin: 4px 0px 0px; font-size: 10px;&quot;&gt;&lt;span style=&quot;font-size: 10px;&quot;&gt;TreeMap&amp;lt;K, V&amp;gt;&lt;/span&gt;&lt;/p&gt;" style="verticalAlign=middle;align=center;overflow=fill;fontSize=10;fontFamily=Helvetica;html=1;strokeColor=#6c8ebf;fillColor=#dae8fc;fontStyle=0" parent="1" vertex="1">
          <mxGeometry x="680" y="470" width="80" height="20" as="geometry" />
        </mxCell>
        <mxCell id="FDBClDNrFTMyNbEmmahb-12" style="edgeStyle=orthogonalEdgeStyle;rounded=0;orthogonalLoop=1;jettySize=auto;html=1;exitX=0.5;exitY=0;exitDx=0;exitDy=0;entryX=0.5;entryY=1;entryDx=0;entryDy=0;endArrow=block;endFill=0;endSize=8;labelBackgroundColor=#F1FAEE;strokeColor=#457B9D;fontColor=#1D3557;fontSize=10;fontStyle=0" parent="1" source="FDBClDNrFTMyNbEmmahb-6" target="FDBClDNrFTMyNbEmmahb-1" edge="1">
          <mxGeometry relative="1" as="geometry" />
        </mxCell>
        <mxCell id="FDBClDNrFTMyNbEmmahb-6" value="&lt;p style=&quot;margin: 4px 0px 0px; font-size: 10px;&quot;&gt;&lt;span style=&quot;font-size: 10px;&quot;&gt;LinkedHashMap&amp;lt;K, V&amp;gt;&lt;/span&gt;&lt;/p&gt;" style="verticalAlign=middle;align=center;overflow=fill;fontSize=10;fontFamily=Helvetica;html=1;strokeColor=#6c8ebf;fillColor=#dae8fc;fontStyle=0" parent="1" vertex="1">
          <mxGeometry x="545" y="520" width="120" height="20" as="geometry" />
        </mxCell>
        <mxCell id="FDBClDNrFTMyNbEmmahb-14" style="edgeStyle=orthogonalEdgeStyle;rounded=0;orthogonalLoop=1;jettySize=auto;html=1;exitX=0.5;exitY=0;exitDx=0;exitDy=0;entryX=0.25;entryY=1;entryDx=0;entryDy=0;endSize=8;endArrow=block;endFill=0;dashed=1;labelBackgroundColor=#F1FAEE;strokeColor=#457B9D;fontColor=#1D3557;fontSize=10;fontStyle=0" parent="1" source="FDBClDNrFTMyNbEmmahb-7" target="FDBClDNrFTMyNbEmmahb-2" edge="1">
          <mxGeometry relative="1" as="geometry">
            <Array as="points">
              <mxPoint x="485" y="440" />
              <mxPoint x="583" y="440" />
            </Array>
          </mxGeometry>
        </mxCell>
        <mxCell id="FDBClDNrFTMyNbEmmahb-7" value="&lt;p style=&quot;margin: 4px 0px 0px; font-size: 10px;&quot;&gt;&lt;span style=&quot;font-size: 10px;&quot;&gt;WeakHashMap&amp;lt;K, V&amp;gt;&lt;/span&gt;&lt;/p&gt;" style="verticalAlign=middle;align=center;overflow=fill;fontSize=10;fontFamily=Helvetica;html=1;strokeColor=#6c8ebf;fillColor=#dae8fc;fontStyle=0" parent="1" vertex="1">
          <mxGeometry x="435" y="470" width="110" height="20" as="geometry" />
        </mxCell>
        <mxCell id="FDBClDNrFTMyNbEmmahb-15" style="edgeStyle=orthogonalEdgeStyle;rounded=0;orthogonalLoop=1;jettySize=auto;html=1;exitX=0.5;exitY=0;exitDx=0;exitDy=0;endArrow=block;endFill=0;endSize=8;dashed=1;entryX=0.111;entryY=0.95;entryDx=0;entryDy=0;entryPerimeter=0;labelBackgroundColor=#F1FAEE;fontColor=#1D3557;strokeColor=#B3B3B3;fontSize=10;fontStyle=0" parent="1" source="FDBClDNrFTMyNbEmmahb-8" target="FDBClDNrFTMyNbEmmahb-2" edge="1">
          <mxGeometry relative="1" as="geometry">
            <mxPoint x="505" y="240" as="targetPoint" />
            <Array as="points">
              <mxPoint x="365" y="420" />
              <mxPoint x="570" y="420" />
            </Array>
          </mxGeometry>
        </mxCell>
        <mxCell id="FDBClDNrFTMyNbEmmahb-8" value="&lt;p style=&quot;margin: 4px 0px 0px; font-size: 10px;&quot;&gt;&lt;span style=&quot;font-size: 10px;&quot;&gt;HashTable&amp;lt;K, V&amp;gt;&lt;/span&gt;&lt;/p&gt;" style="verticalAlign=middle;align=center;overflow=fill;fontSize=10;fontFamily=Helvetica;html=1;strokeColor=#457B9D;fontColor=#1D3557;fillColor=#B3B3B3;fontStyle=0" parent="1" vertex="1">
          <mxGeometry x="330" y="470" width="90" height="20" as="geometry" />
        </mxCell>
        <mxCell id="FDBClDNrFTMyNbEmmahb-24" style="edgeStyle=orthogonalEdgeStyle;rounded=0;sketch=0;orthogonalLoop=1;jettySize=auto;html=1;exitX=0.5;exitY=0;exitDx=0;exitDy=0;entryX=0.9;entryY=1;entryDx=0;entryDy=0;entryPerimeter=0;strokeColor=#457B9D;fillColor=#A8DADC;fontColor=#1D3557;endArrow=block;endFill=0;endSize=8;fontSize=10;fontStyle=0" parent="1" source="FDBClDNrFTMyNbEmmahb-19" target="FDBClDNrFTMyNbEmmahb-2" edge="1">
          <mxGeometry relative="1" as="geometry" />
        </mxCell>
        <mxCell id="FDBClDNrFTMyNbEmmahb-19" value="&lt;p style=&quot;margin: 4px 0px 0px; font-size: 10px;&quot;&gt;&lt;span style=&quot;font-size: 10px;&quot;&gt;ConcurrentMap&amp;lt;K, V&amp;gt;&lt;/span&gt;&lt;/p&gt;" style="verticalAlign=middle;align=center;overflow=fill;fontSize=10;fontFamily=Helvetica;html=1;fillColor=#d5e8d4;strokeColor=#82b366;fontStyle=0" parent="1" vertex="1">
          <mxGeometry x="980" y="330" width="110" height="20" as="geometry" />
        </mxCell>
        <mxCell id="FDBClDNrFTMyNbEmmahb-22" style="edgeStyle=orthogonalEdgeStyle;rounded=0;sketch=0;orthogonalLoop=1;jettySize=auto;html=1;exitX=0.25;exitY=0;exitDx=0;exitDy=0;entryX=0.75;entryY=1;entryDx=0;entryDy=0;labelBackgroundColor=#F1FAEE;strokeColor=#457B9D;fontColor=#1D3557;endArrow=block;endFill=0;endSize=8;fontSize=10;fontStyle=0" parent="1" source="FDBClDNrFTMyNbEmmahb-20" target="FDBClDNrFTMyNbEmmahb-4" edge="1">
          <mxGeometry relative="1" as="geometry">
            <Array as="points">
              <mxPoint x="860" y="410" />
              <mxPoint x="755" y="410" />
            </Array>
          </mxGeometry>
        </mxCell>
        <mxCell id="FDBClDNrFTMyNbEmmahb-23" style="edgeStyle=orthogonalEdgeStyle;rounded=0;sketch=0;orthogonalLoop=1;jettySize=auto;html=1;exitX=0.75;exitY=0;exitDx=0;exitDy=0;entryX=0.25;entryY=1;entryDx=0;entryDy=0;labelBackgroundColor=#F1FAEE;strokeColor=#457B9D;fontColor=#1D3557;endArrow=block;endFill=0;endSize=8;fontSize=10;fontStyle=0" parent="1" source="FDBClDNrFTMyNbEmmahb-20" target="FDBClDNrFTMyNbEmmahb-19" edge="1">
          <mxGeometry relative="1" as="geometry">
            <Array as="points">
              <mxPoint x="930" y="440" />
              <mxPoint x="898" y="440" />
              <mxPoint x="898" y="380" />
              <mxPoint x="1008" y="380" />
            </Array>
          </mxGeometry>
        </mxCell>
        <mxCell id="FDBClDNrFTMyNbEmmahb-20" value="&lt;p style=&quot;margin: 4px 0px 0px; font-size: 10px;&quot;&gt;&lt;span style=&quot;font-size: 10px;&quot;&gt;ConcurrentNavigableMap&amp;lt;K, V&amp;gt;&lt;/span&gt;&lt;/p&gt;" style="verticalAlign=middle;align=center;overflow=fill;fontSize=10;fontFamily=Helvetica;html=1;fillColor=#d5e8d4;strokeColor=#82b366;fontStyle=0" parent="1" vertex="1">
          <mxGeometry x="810" y="420" width="160" height="20" as="geometry" />
        </mxCell>
        <mxCell id="FDBClDNrFTMyNbEmmahb-28" style="edgeStyle=orthogonalEdgeStyle;rounded=0;sketch=0;orthogonalLoop=1;jettySize=auto;html=1;exitX=0.5;exitY=0;exitDx=0;exitDy=0;entryX=0.5;entryY=1;entryDx=0;entryDy=0;endArrow=block;endFill=0;endSize=8;strokeColor=#457B9D;fillColor=#A8DADC;fontColor=#1D3557;dashed=1;fontSize=10;fontStyle=0" parent="1" source="FDBClDNrFTMyNbEmmahb-25" target="FDBClDNrFTMyNbEmmahb-19" edge="1">
          <mxGeometry relative="1" as="geometry">
            <Array as="points">
              <mxPoint x="1035" y="470" />
            </Array>
          </mxGeometry>
        </mxCell>
        <mxCell id="FDBClDNrFTMyNbEmmahb-25" value="&lt;p style=&quot;margin: 4px 0px 0px; font-size: 10px;&quot;&gt;&lt;span style=&quot;font-size: 10px;&quot;&gt;ConcurrentMap&amp;lt;K, V&amp;gt;&lt;/span&gt;&lt;/p&gt;" style="verticalAlign=middle;align=center;overflow=fill;fontSize=10;fontFamily=Helvetica;html=1;strokeColor=#6c8ebf;fillColor=#dae8fc;fontStyle=0" parent="1" vertex="1">
          <mxGeometry x="975" y="470" width="120" height="20" as="geometry" />
        </mxCell>
        <mxCell id="FDBClDNrFTMyNbEmmahb-29" style="edgeStyle=orthogonalEdgeStyle;rounded=0;sketch=0;orthogonalLoop=1;jettySize=auto;html=1;exitX=0.5;exitY=0;exitDx=0;exitDy=0;entryX=0.5;entryY=1;entryDx=0;entryDy=0;endArrow=block;endFill=0;endSize=8;strokeColor=#457B9D;fillColor=#A8DADC;fontColor=#1D3557;dashed=1;fontSize=10;fontStyle=0" parent="1" source="FDBClDNrFTMyNbEmmahb-27" target="FDBClDNrFTMyNbEmmahb-20" edge="1">
          <mxGeometry relative="1" as="geometry" />
        </mxCell>
        <mxCell id="FDBClDNrFTMyNbEmmahb-27" value="&lt;p style=&quot;margin: 4px 0px 0px; font-size: 10px;&quot;&gt;&lt;span style=&quot;font-size: 10px;&quot;&gt;ConcurrentSkipListMap&amp;lt;K, V&amp;gt;&lt;/span&gt;&lt;/p&gt;" style="verticalAlign=middle;align=center;overflow=fill;fontSize=10;fontFamily=Helvetica;html=1;strokeColor=#6c8ebf;fillColor=#dae8fc;fontStyle=0" parent="1" vertex="1">
          <mxGeometry x="815" y="470" width="150" height="20" as="geometry" />
        </mxCell>
        <mxCell id="nLRBRidwz_fo-k9Ez-_o-1" value="&lt;font color=&quot;#999999&quot;&gt;0&lt;/font&gt;" style="text;html=1;align=center;verticalAlign=middle;resizable=0;points=[];autosize=1;strokeColor=none;fillColor=none;fontSize=12;" parent="1" vertex="1">
          <mxGeometry x="350" y="790" width="30" height="30" as="geometry" />
        </mxCell>
        <mxCell id="nLRBRidwz_fo-k9Ez-_o-2" value="0" style="text;html=1;align=center;verticalAlign=middle;resizable=0;points=[];autosize=1;strokeColor=none;fillColor=none;fontSize=12;" parent="1" vertex="1">
          <mxGeometry x="360" y="790" width="30" height="30" as="geometry" />
        </mxCell>
        <mxCell id="nLRBRidwz_fo-k9Ez-_o-3" value="1" style="text;html=1;align=center;verticalAlign=middle;resizable=0;points=[];autosize=1;strokeColor=none;fillColor=none;fontSize=12;" parent="1" vertex="1">
          <mxGeometry x="370" y="790" width="30" height="30" as="geometry" />
        </mxCell>
        <mxCell id="nLRBRidwz_fo-k9Ez-_o-4" value="0" style="text;html=1;align=center;verticalAlign=middle;resizable=0;points=[];autosize=1;strokeColor=none;fillColor=none;fontSize=12;" parent="1" vertex="1">
          <mxGeometry x="380" y="790" width="30" height="30" as="geometry" />
        </mxCell>
        <mxCell id="nLRBRidwz_fo-k9Ez-_o-5" value="0" style="text;html=1;align=center;verticalAlign=middle;resizable=0;points=[];autosize=1;strokeColor=none;fillColor=none;fontSize=12;" parent="1" vertex="1">
          <mxGeometry x="400" y="790" width="30" height="30" as="geometry" />
        </mxCell>
        <mxCell id="nLRBRidwz_fo-k9Ez-_o-6" value="0" style="text;html=1;align=center;verticalAlign=middle;resizable=0;points=[];autosize=1;strokeColor=none;fillColor=none;fontSize=12;" parent="1" vertex="1">
          <mxGeometry x="410" y="790" width="30" height="30" as="geometry" />
        </mxCell>
        <mxCell id="nLRBRidwz_fo-k9Ez-_o-7" value="0" style="text;html=1;align=center;verticalAlign=middle;resizable=0;points=[];autosize=1;strokeColor=none;fillColor=none;fontSize=12;" parent="1" vertex="1">
          <mxGeometry x="420" y="790" width="30" height="30" as="geometry" />
        </mxCell>
        <mxCell id="nLRBRidwz_fo-k9Ez-_o-8" value="0" style="text;html=1;align=center;verticalAlign=middle;resizable=0;points=[];autosize=1;strokeColor=none;fillColor=none;fontSize=12;" parent="1" vertex="1">
          <mxGeometry x="430" y="790" width="30" height="30" as="geometry" />
        </mxCell>
        <mxCell id="nLRBRidwz_fo-k9Ez-_o-9" value="0" style="text;html=1;align=center;verticalAlign=middle;resizable=0;points=[];autosize=1;strokeColor=none;fillColor=none;fontSize=12;" parent="1" vertex="1">
          <mxGeometry x="450" y="790" width="30" height="30" as="geometry" />
        </mxCell>
        <mxCell id="nLRBRidwz_fo-k9Ez-_o-10" value="0" style="text;html=1;align=center;verticalAlign=middle;resizable=0;points=[];autosize=1;strokeColor=none;fillColor=none;fontSize=12;" parent="1" vertex="1">
          <mxGeometry x="460" y="790" width="30" height="30" as="geometry" />
        </mxCell>
        <mxCell id="nLRBRidwz_fo-k9Ez-_o-11" value="0" style="text;html=1;align=center;verticalAlign=middle;resizable=0;points=[];autosize=1;strokeColor=none;fillColor=none;fontSize=12;" parent="1" vertex="1">
          <mxGeometry x="470" y="790" width="30" height="30" as="geometry" />
        </mxCell>
        <mxCell id="nLRBRidwz_fo-k9Ez-_o-12" value="0" style="text;html=1;align=center;verticalAlign=middle;resizable=0;points=[];autosize=1;strokeColor=none;fillColor=none;fontSize=12;" parent="1" vertex="1">
          <mxGeometry x="480" y="790" width="30" height="30" as="geometry" />
        </mxCell>
        <mxCell id="nLRBRidwz_fo-k9Ez-_o-13" value="0" style="text;html=1;align=center;verticalAlign=middle;resizable=0;points=[];autosize=1;strokeColor=none;fillColor=none;fontSize=12;" parent="1" vertex="1">
          <mxGeometry x="500" y="790" width="30" height="30" as="geometry" />
        </mxCell>
        <mxCell id="nLRBRidwz_fo-k9Ez-_o-14" value="0" style="text;html=1;align=center;verticalAlign=middle;resizable=0;points=[];autosize=1;strokeColor=none;fillColor=none;fontSize=12;" parent="1" vertex="1">
          <mxGeometry x="510" y="790" width="30" height="30" as="geometry" />
        </mxCell>
        <mxCell id="nLRBRidwz_fo-k9Ez-_o-15" value="0" style="text;html=1;align=center;verticalAlign=middle;resizable=0;points=[];autosize=1;strokeColor=none;fillColor=none;fontSize=12;" parent="1" vertex="1">
          <mxGeometry x="520" y="790" width="30" height="30" as="geometry" />
        </mxCell>
        <mxCell id="nLRBRidwz_fo-k9Ez-_o-16" value="0" style="text;html=1;align=center;verticalAlign=middle;resizable=0;points=[];autosize=1;strokeColor=none;fillColor=none;fontSize=12;" parent="1" vertex="1">
          <mxGeometry x="530" y="790" width="30" height="30" as="geometry" />
        </mxCell>
        <mxCell id="nLRBRidwz_fo-k9Ez-_o-17" value="0" style="text;html=1;align=center;verticalAlign=middle;resizable=0;points=[];autosize=1;strokeColor=none;fillColor=none;fontSize=12;" parent="1" vertex="1">
          <mxGeometry x="550" y="790" width="30" height="30" as="geometry" />
        </mxCell>
        <mxCell id="nLRBRidwz_fo-k9Ez-_o-18" value="0" style="text;html=1;align=center;verticalAlign=middle;resizable=0;points=[];autosize=1;strokeColor=none;fillColor=none;fontSize=12;" parent="1" vertex="1">
          <mxGeometry x="560" y="790" width="30" height="30" as="geometry" />
        </mxCell>
        <mxCell id="nLRBRidwz_fo-k9Ez-_o-19" value="0" style="text;html=1;align=center;verticalAlign=middle;resizable=0;points=[];autosize=1;strokeColor=none;fillColor=none;fontSize=12;" parent="1" vertex="1">
          <mxGeometry x="570" y="790" width="30" height="30" as="geometry" />
        </mxCell>
        <mxCell id="nLRBRidwz_fo-k9Ez-_o-20" value="0" style="text;html=1;align=center;verticalAlign=middle;resizable=0;points=[];autosize=1;strokeColor=none;fillColor=none;fontSize=12;" parent="1" vertex="1">
          <mxGeometry x="580" y="790" width="30" height="30" as="geometry" />
        </mxCell>
        <mxCell id="nLRBRidwz_fo-k9Ez-_o-21" value="0" style="text;html=1;align=center;verticalAlign=middle;resizable=0;points=[];autosize=1;strokeColor=none;fillColor=none;fontSize=12;" parent="1" vertex="1">
          <mxGeometry x="600" y="790" width="30" height="30" as="geometry" />
        </mxCell>
        <mxCell id="nLRBRidwz_fo-k9Ez-_o-22" value="0" style="text;html=1;align=center;verticalAlign=middle;resizable=0;points=[];autosize=1;strokeColor=none;fillColor=none;fontSize=12;" parent="1" vertex="1">
          <mxGeometry x="610" y="790" width="30" height="30" as="geometry" />
        </mxCell>
        <mxCell id="nLRBRidwz_fo-k9Ez-_o-23" value="0" style="text;html=1;align=center;verticalAlign=middle;resizable=0;points=[];autosize=1;strokeColor=none;fillColor=none;fontSize=12;" parent="1" vertex="1">
          <mxGeometry x="620" y="790" width="30" height="30" as="geometry" />
        </mxCell>
        <mxCell id="nLRBRidwz_fo-k9Ez-_o-24" value="0" style="text;html=1;align=center;verticalAlign=middle;resizable=0;points=[];autosize=1;strokeColor=none;fillColor=none;fontSize=12;" parent="1" vertex="1">
          <mxGeometry x="630" y="790" width="30" height="30" as="geometry" />
        </mxCell>
        <mxCell id="nLRBRidwz_fo-k9Ez-_o-25" value="0" style="text;html=1;align=center;verticalAlign=middle;resizable=0;points=[];autosize=1;strokeColor=none;fillColor=none;fontSize=12;" parent="1" vertex="1">
          <mxGeometry x="650" y="790" width="30" height="30" as="geometry" />
        </mxCell>
        <mxCell id="nLRBRidwz_fo-k9Ez-_o-26" value="0" style="text;html=1;align=center;verticalAlign=middle;resizable=0;points=[];autosize=1;strokeColor=none;fillColor=none;fontSize=12;" parent="1" vertex="1">
          <mxGeometry x="660" y="790" width="30" height="30" as="geometry" />
        </mxCell>
        <mxCell id="nLRBRidwz_fo-k9Ez-_o-27" value="0" style="text;html=1;align=center;verticalAlign=middle;resizable=0;points=[];autosize=1;strokeColor=none;fillColor=none;fontSize=12;" parent="1" vertex="1">
          <mxGeometry x="670" y="790" width="30" height="30" as="geometry" />
        </mxCell>
        <mxCell id="nLRBRidwz_fo-k9Ez-_o-28" value="0" style="text;html=1;align=center;verticalAlign=middle;resizable=0;points=[];autosize=1;strokeColor=none;fillColor=none;fontSize=12;" parent="1" vertex="1">
          <mxGeometry x="680" y="790" width="30" height="30" as="geometry" />
        </mxCell>
        <mxCell id="nLRBRidwz_fo-k9Ez-_o-29" value="0" style="text;html=1;align=center;verticalAlign=middle;resizable=0;points=[];autosize=1;strokeColor=none;fillColor=none;fontSize=12;" parent="1" vertex="1">
          <mxGeometry x="700" y="790" width="30" height="30" as="geometry" />
        </mxCell>
        <mxCell id="nLRBRidwz_fo-k9Ez-_o-30" value="0" style="text;html=1;align=center;verticalAlign=middle;resizable=0;points=[];autosize=1;strokeColor=none;fillColor=none;fontSize=12;" parent="1" vertex="1">
          <mxGeometry x="710" y="790" width="30" height="30" as="geometry" />
        </mxCell>
        <mxCell id="nLRBRidwz_fo-k9Ez-_o-31" value="0" style="text;html=1;align=center;verticalAlign=middle;resizable=0;points=[];autosize=1;strokeColor=none;fillColor=none;fontSize=12;" parent="1" vertex="1">
          <mxGeometry x="720" y="790" width="30" height="30" as="geometry" />
        </mxCell>
        <mxCell id="nLRBRidwz_fo-k9Ez-_o-32" value="1" style="text;html=1;align=center;verticalAlign=middle;resizable=0;points=[];autosize=1;strokeColor=none;fillColor=none;fontSize=12;" parent="1" vertex="1">
          <mxGeometry x="730" y="790" width="30" height="30" as="geometry" />
        </mxCell>
        <mxCell id="nLRBRidwz_fo-k9Ez-_o-33" value="&lt;font color=&quot;#999999&quot;&gt;0&lt;/font&gt;" style="text;html=1;align=center;verticalAlign=middle;resizable=0;points=[];autosize=1;strokeColor=none;fillColor=none;fontSize=12;" parent="1" vertex="1">
          <mxGeometry x="350" y="810" width="30" height="30" as="geometry" />
        </mxCell>
        <mxCell id="nLRBRidwz_fo-k9Ez-_o-34" value="0" style="text;html=1;align=center;verticalAlign=middle;resizable=0;points=[];autosize=1;strokeColor=none;fillColor=none;fontSize=12;" parent="1" vertex="1">
          <mxGeometry x="360" y="810" width="30" height="30" as="geometry" />
        </mxCell>
        <mxCell id="nLRBRidwz_fo-k9Ez-_o-35" value="1" style="text;html=1;align=center;verticalAlign=middle;resizable=0;points=[];autosize=1;strokeColor=none;fillColor=none;fontSize=12;" parent="1" vertex="1">
          <mxGeometry x="370" y="810" width="30" height="30" as="geometry" />
        </mxCell>
        <mxCell id="nLRBRidwz_fo-k9Ez-_o-36" value="0" style="text;html=1;align=center;verticalAlign=middle;resizable=0;points=[];autosize=1;strokeColor=none;fillColor=none;fontSize=12;" parent="1" vertex="1">
          <mxGeometry x="380" y="810" width="30" height="30" as="geometry" />
        </mxCell>
        <mxCell id="nLRBRidwz_fo-k9Ez-_o-37" value="0" style="text;html=1;align=center;verticalAlign=middle;resizable=0;points=[];autosize=1;strokeColor=none;fillColor=none;fontSize=12;" parent="1" vertex="1">
          <mxGeometry x="400" y="810" width="30" height="30" as="geometry" />
        </mxCell>
        <mxCell id="nLRBRidwz_fo-k9Ez-_o-38" value="0" style="text;html=1;align=center;verticalAlign=middle;resizable=0;points=[];autosize=1;strokeColor=none;fillColor=none;fontSize=12;" parent="1" vertex="1">
          <mxGeometry x="410" y="810" width="30" height="30" as="geometry" />
        </mxCell>
        <mxCell id="nLRBRidwz_fo-k9Ez-_o-39" value="0" style="text;html=1;align=center;verticalAlign=middle;resizable=0;points=[];autosize=1;strokeColor=none;fillColor=none;fontSize=12;" parent="1" vertex="1">
          <mxGeometry x="420" y="810" width="30" height="30" as="geometry" />
        </mxCell>
        <mxCell id="nLRBRidwz_fo-k9Ez-_o-40" value="0" style="text;html=1;align=center;verticalAlign=middle;resizable=0;points=[];autosize=1;strokeColor=none;fillColor=none;fontSize=12;" parent="1" vertex="1">
          <mxGeometry x="430" y="810" width="30" height="30" as="geometry" />
        </mxCell>
        <mxCell id="nLRBRidwz_fo-k9Ez-_o-41" value="0" style="text;html=1;align=center;verticalAlign=middle;resizable=0;points=[];autosize=1;strokeColor=none;fillColor=none;fontSize=12;" parent="1" vertex="1">
          <mxGeometry x="450" y="810" width="30" height="30" as="geometry" />
        </mxCell>
        <mxCell id="nLRBRidwz_fo-k9Ez-_o-42" value="0" style="text;html=1;align=center;verticalAlign=middle;resizable=0;points=[];autosize=1;strokeColor=none;fillColor=none;fontSize=12;" parent="1" vertex="1">
          <mxGeometry x="460" y="810" width="30" height="30" as="geometry" />
        </mxCell>
        <mxCell id="nLRBRidwz_fo-k9Ez-_o-43" value="0" style="text;html=1;align=center;verticalAlign=middle;resizable=0;points=[];autosize=1;strokeColor=none;fillColor=none;fontSize=12;" parent="1" vertex="1">
          <mxGeometry x="470" y="810" width="30" height="30" as="geometry" />
        </mxCell>
        <mxCell id="nLRBRidwz_fo-k9Ez-_o-44" value="0" style="text;html=1;align=center;verticalAlign=middle;resizable=0;points=[];autosize=1;strokeColor=none;fillColor=none;fontSize=12;" parent="1" vertex="1">
          <mxGeometry x="480" y="810" width="30" height="30" as="geometry" />
        </mxCell>
        <mxCell id="nLRBRidwz_fo-k9Ez-_o-45" value="0" style="text;html=1;align=center;verticalAlign=middle;resizable=0;points=[];autosize=1;strokeColor=none;fillColor=none;fontSize=12;" parent="1" vertex="1">
          <mxGeometry x="500" y="810" width="30" height="30" as="geometry" />
        </mxCell>
        <mxCell id="nLRBRidwz_fo-k9Ez-_o-46" value="0" style="text;html=1;align=center;verticalAlign=middle;resizable=0;points=[];autosize=1;strokeColor=none;fillColor=none;fontSize=12;" parent="1" vertex="1">
          <mxGeometry x="510" y="810" width="30" height="30" as="geometry" />
        </mxCell>
        <mxCell id="nLRBRidwz_fo-k9Ez-_o-47" value="0" style="text;html=1;align=center;verticalAlign=middle;resizable=0;points=[];autosize=1;strokeColor=none;fillColor=none;fontSize=12;" parent="1" vertex="1">
          <mxGeometry x="520" y="810" width="30" height="30" as="geometry" />
        </mxCell>
        <mxCell id="nLRBRidwz_fo-k9Ez-_o-48" value="0" style="text;html=1;align=center;verticalAlign=middle;resizable=0;points=[];autosize=1;strokeColor=none;fillColor=none;fontSize=12;" parent="1" vertex="1">
          <mxGeometry x="530" y="810" width="30" height="30" as="geometry" />
        </mxCell>
        <mxCell id="nLRBRidwz_fo-k9Ez-_o-49" value="0" style="text;html=1;align=center;verticalAlign=middle;resizable=0;points=[];autosize=1;strokeColor=none;fillColor=none;fontSize=12;" parent="1" vertex="1">
          <mxGeometry x="550" y="810" width="30" height="30" as="geometry" />
        </mxCell>
        <mxCell id="nLRBRidwz_fo-k9Ez-_o-50" value="0" style="text;html=1;align=center;verticalAlign=middle;resizable=0;points=[];autosize=1;strokeColor=none;fillColor=none;fontSize=12;" parent="1" vertex="1">
          <mxGeometry x="560" y="810" width="30" height="30" as="geometry" />
        </mxCell>
        <mxCell id="nLRBRidwz_fo-k9Ez-_o-51" value="0" style="text;html=1;align=center;verticalAlign=middle;resizable=0;points=[];autosize=1;strokeColor=none;fillColor=none;fontSize=12;" parent="1" vertex="1">
          <mxGeometry x="570" y="810" width="30" height="30" as="geometry" />
        </mxCell>
        <mxCell id="nLRBRidwz_fo-k9Ez-_o-52" value="0" style="text;html=1;align=center;verticalAlign=middle;resizable=0;points=[];autosize=1;strokeColor=none;fillColor=none;fontSize=12;" parent="1" vertex="1">
          <mxGeometry x="580" y="810" width="30" height="30" as="geometry" />
        </mxCell>
        <mxCell id="nLRBRidwz_fo-k9Ez-_o-53" value="0" style="text;html=1;align=center;verticalAlign=middle;resizable=0;points=[];autosize=1;strokeColor=none;fillColor=none;fontSize=12;" parent="1" vertex="1">
          <mxGeometry x="600" y="810" width="30" height="30" as="geometry" />
        </mxCell>
        <mxCell id="nLRBRidwz_fo-k9Ez-_o-54" value="0" style="text;html=1;align=center;verticalAlign=middle;resizable=0;points=[];autosize=1;strokeColor=none;fillColor=none;fontSize=12;" parent="1" vertex="1">
          <mxGeometry x="610" y="810" width="30" height="30" as="geometry" />
        </mxCell>
        <mxCell id="nLRBRidwz_fo-k9Ez-_o-55" value="0" style="text;html=1;align=center;verticalAlign=middle;resizable=0;points=[];autosize=1;strokeColor=none;fillColor=none;fontSize=12;" parent="1" vertex="1">
          <mxGeometry x="620" y="810" width="30" height="30" as="geometry" />
        </mxCell>
        <mxCell id="nLRBRidwz_fo-k9Ez-_o-56" value="0" style="text;html=1;align=center;verticalAlign=middle;resizable=0;points=[];autosize=1;strokeColor=none;fillColor=none;fontSize=12;" parent="1" vertex="1">
          <mxGeometry x="630" y="810" width="30" height="30" as="geometry" />
        </mxCell>
        <mxCell id="nLRBRidwz_fo-k9Ez-_o-57" value="0" style="text;html=1;align=center;verticalAlign=middle;resizable=0;points=[];autosize=1;strokeColor=none;fillColor=none;fontSize=12;" parent="1" vertex="1">
          <mxGeometry x="650" y="810" width="30" height="30" as="geometry" />
        </mxCell>
        <mxCell id="nLRBRidwz_fo-k9Ez-_o-58" value="0" style="text;html=1;align=center;verticalAlign=middle;resizable=0;points=[];autosize=1;strokeColor=none;fillColor=none;fontSize=12;" parent="1" vertex="1">
          <mxGeometry x="660" y="810" width="30" height="30" as="geometry" />
        </mxCell>
        <mxCell id="nLRBRidwz_fo-k9Ez-_o-59" value="0" style="text;html=1;align=center;verticalAlign=middle;resizable=0;points=[];autosize=1;strokeColor=none;fillColor=none;fontSize=12;" parent="1" vertex="1">
          <mxGeometry x="670" y="810" width="30" height="30" as="geometry" />
        </mxCell>
        <mxCell id="nLRBRidwz_fo-k9Ez-_o-60" value="0" style="text;html=1;align=center;verticalAlign=middle;resizable=0;points=[];autosize=1;strokeColor=none;fillColor=none;fontSize=12;" parent="1" vertex="1">
          <mxGeometry x="680" y="810" width="30" height="30" as="geometry" />
        </mxCell>
        <mxCell id="nLRBRidwz_fo-k9Ez-_o-61" value="0" style="text;html=1;align=center;verticalAlign=middle;resizable=0;points=[];autosize=1;strokeColor=none;fillColor=none;fontSize=12;" parent="1" vertex="1">
          <mxGeometry x="700" y="810" width="30" height="30" as="geometry" />
        </mxCell>
        <mxCell id="nLRBRidwz_fo-k9Ez-_o-62" value="0" style="text;html=1;align=center;verticalAlign=middle;resizable=0;points=[];autosize=1;strokeColor=none;fillColor=none;fontSize=12;" parent="1" vertex="1">
          <mxGeometry x="710" y="810" width="30" height="30" as="geometry" />
        </mxCell>
        <mxCell id="nLRBRidwz_fo-k9Ez-_o-63" value="0" style="text;html=1;align=center;verticalAlign=middle;resizable=0;points=[];autosize=1;strokeColor=none;fillColor=none;fontSize=12;" parent="1" vertex="1">
          <mxGeometry x="720" y="810" width="30" height="30" as="geometry" />
        </mxCell>
        <mxCell id="nLRBRidwz_fo-k9Ez-_o-64" value="0" style="text;html=1;align=center;verticalAlign=middle;resizable=0;points=[];autosize=1;strokeColor=none;fillColor=none;fontSize=12;" parent="1" vertex="1">
          <mxGeometry x="730" y="810" width="30" height="30" as="geometry" />
        </mxCell>
        <mxCell id="nLRBRidwz_fo-k9Ez-_o-65" value="&lt;font color=&quot;#999999&quot;&gt;0&lt;/font&gt;" style="text;html=1;align=center;verticalAlign=middle;resizable=0;points=[];autosize=1;strokeColor=none;fillColor=none;fontSize=12;" parent="1" vertex="1">
          <mxGeometry x="350" y="830" width="30" height="30" as="geometry" />
        </mxCell>
        <mxCell id="nLRBRidwz_fo-k9Ez-_o-66" value="0" style="text;html=1;align=center;verticalAlign=middle;resizable=0;points=[];autosize=1;strokeColor=none;fillColor=none;fontSize=12;" parent="1" vertex="1">
          <mxGeometry x="360" y="830" width="30" height="30" as="geometry" />
        </mxCell>
        <mxCell id="nLRBRidwz_fo-k9Ez-_o-67" value="1" style="text;html=1;align=center;verticalAlign=middle;resizable=0;points=[];autosize=1;strokeColor=none;fillColor=none;fontSize=12;" parent="1" vertex="1">
          <mxGeometry x="370" y="830" width="30" height="30" as="geometry" />
        </mxCell>
        <mxCell id="nLRBRidwz_fo-k9Ez-_o-68" value="&lt;font color=&quot;#ff0000&quot;&gt;1&lt;/font&gt;" style="text;html=1;align=center;verticalAlign=middle;resizable=0;points=[];autosize=1;strokeColor=none;fillColor=none;fontSize=12;" parent="1" vertex="1">
          <mxGeometry x="380" y="830" width="30" height="30" as="geometry" />
        </mxCell>
        <mxCell id="nLRBRidwz_fo-k9Ez-_o-69" value="0" style="text;html=1;align=center;verticalAlign=middle;resizable=0;points=[];autosize=1;strokeColor=none;fillColor=none;fontSize=12;" parent="1" vertex="1">
          <mxGeometry x="400" y="830" width="30" height="30" as="geometry" />
        </mxCell>
        <mxCell id="nLRBRidwz_fo-k9Ez-_o-70" value="0" style="text;html=1;align=center;verticalAlign=middle;resizable=0;points=[];autosize=1;strokeColor=none;fillColor=none;fontSize=12;" parent="1" vertex="1">
          <mxGeometry x="410" y="830" width="30" height="30" as="geometry" />
        </mxCell>
        <mxCell id="nLRBRidwz_fo-k9Ez-_o-71" value="0" style="text;html=1;align=center;verticalAlign=middle;resizable=0;points=[];autosize=1;strokeColor=none;fillColor=none;fontSize=12;" parent="1" vertex="1">
          <mxGeometry x="420" y="830" width="30" height="30" as="geometry" />
        </mxCell>
        <mxCell id="nLRBRidwz_fo-k9Ez-_o-72" value="0" style="text;html=1;align=center;verticalAlign=middle;resizable=0;points=[];autosize=1;strokeColor=none;fillColor=none;fontSize=12;" parent="1" vertex="1">
          <mxGeometry x="430" y="830" width="30" height="30" as="geometry" />
        </mxCell>
        <mxCell id="nLRBRidwz_fo-k9Ez-_o-73" value="0" style="text;html=1;align=center;verticalAlign=middle;resizable=0;points=[];autosize=1;strokeColor=none;fillColor=none;fontSize=12;" parent="1" vertex="1">
          <mxGeometry x="450" y="830" width="30" height="30" as="geometry" />
        </mxCell>
        <mxCell id="nLRBRidwz_fo-k9Ez-_o-74" value="0" style="text;html=1;align=center;verticalAlign=middle;resizable=0;points=[];autosize=1;strokeColor=none;fillColor=none;fontSize=12;" parent="1" vertex="1">
          <mxGeometry x="460" y="830" width="30" height="30" as="geometry" />
        </mxCell>
        <mxCell id="nLRBRidwz_fo-k9Ez-_o-75" value="0" style="text;html=1;align=center;verticalAlign=middle;resizable=0;points=[];autosize=1;strokeColor=none;fillColor=none;fontSize=12;" parent="1" vertex="1">
          <mxGeometry x="470" y="830" width="30" height="30" as="geometry" />
        </mxCell>
        <mxCell id="nLRBRidwz_fo-k9Ez-_o-76" value="0" style="text;html=1;align=center;verticalAlign=middle;resizable=0;points=[];autosize=1;strokeColor=none;fillColor=none;fontSize=12;" parent="1" vertex="1">
          <mxGeometry x="480" y="830" width="30" height="30" as="geometry" />
        </mxCell>
        <mxCell id="nLRBRidwz_fo-k9Ez-_o-77" value="0" style="text;html=1;align=center;verticalAlign=middle;resizable=0;points=[];autosize=1;strokeColor=none;fillColor=none;fontSize=12;" parent="1" vertex="1">
          <mxGeometry x="500" y="830" width="30" height="30" as="geometry" />
        </mxCell>
        <mxCell id="nLRBRidwz_fo-k9Ez-_o-78" value="0" style="text;html=1;align=center;verticalAlign=middle;resizable=0;points=[];autosize=1;strokeColor=none;fillColor=none;fontSize=12;" parent="1" vertex="1">
          <mxGeometry x="510" y="830" width="30" height="30" as="geometry" />
        </mxCell>
        <mxCell id="nLRBRidwz_fo-k9Ez-_o-79" value="0" style="text;html=1;align=center;verticalAlign=middle;resizable=0;points=[];autosize=1;strokeColor=none;fillColor=none;fontSize=12;" parent="1" vertex="1">
          <mxGeometry x="520" y="830" width="30" height="30" as="geometry" />
        </mxCell>
        <mxCell id="nLRBRidwz_fo-k9Ez-_o-80" value="0" style="text;html=1;align=center;verticalAlign=middle;resizable=0;points=[];autosize=1;strokeColor=none;fillColor=none;fontSize=12;" parent="1" vertex="1">
          <mxGeometry x="530" y="830" width="30" height="30" as="geometry" />
        </mxCell>
        <mxCell id="nLRBRidwz_fo-k9Ez-_o-81" value="0" style="text;html=1;align=center;verticalAlign=middle;resizable=0;points=[];autosize=1;strokeColor=none;fillColor=none;fontSize=12;" parent="1" vertex="1">
          <mxGeometry x="550" y="830" width="30" height="30" as="geometry" />
        </mxCell>
        <mxCell id="nLRBRidwz_fo-k9Ez-_o-82" value="0" style="text;html=1;align=center;verticalAlign=middle;resizable=0;points=[];autosize=1;strokeColor=none;fillColor=none;fontSize=12;" parent="1" vertex="1">
          <mxGeometry x="560" y="830" width="30" height="30" as="geometry" />
        </mxCell>
        <mxCell id="nLRBRidwz_fo-k9Ez-_o-83" value="0" style="text;html=1;align=center;verticalAlign=middle;resizable=0;points=[];autosize=1;strokeColor=none;fillColor=none;fontSize=12;" parent="1" vertex="1">
          <mxGeometry x="570" y="830" width="30" height="30" as="geometry" />
        </mxCell>
        <mxCell id="nLRBRidwz_fo-k9Ez-_o-84" value="0" style="text;html=1;align=center;verticalAlign=middle;resizable=0;points=[];autosize=1;strokeColor=none;fillColor=none;fontSize=12;" parent="1" vertex="1">
          <mxGeometry x="580" y="830" width="30" height="30" as="geometry" />
        </mxCell>
        <mxCell id="nLRBRidwz_fo-k9Ez-_o-85" value="0" style="text;html=1;align=center;verticalAlign=middle;resizable=0;points=[];autosize=1;strokeColor=none;fillColor=none;fontSize=12;" parent="1" vertex="1">
          <mxGeometry x="600" y="830" width="30" height="30" as="geometry" />
        </mxCell>
        <mxCell id="nLRBRidwz_fo-k9Ez-_o-86" value="0" style="text;html=1;align=center;verticalAlign=middle;resizable=0;points=[];autosize=1;strokeColor=none;fillColor=none;fontSize=12;" parent="1" vertex="1">
          <mxGeometry x="610" y="830" width="30" height="30" as="geometry" />
        </mxCell>
        <mxCell id="nLRBRidwz_fo-k9Ez-_o-87" value="0" style="text;html=1;align=center;verticalAlign=middle;resizable=0;points=[];autosize=1;strokeColor=none;fillColor=none;fontSize=12;" parent="1" vertex="1">
          <mxGeometry x="620" y="830" width="30" height="30" as="geometry" />
        </mxCell>
        <mxCell id="nLRBRidwz_fo-k9Ez-_o-88" value="0" style="text;html=1;align=center;verticalAlign=middle;resizable=0;points=[];autosize=1;strokeColor=none;fillColor=none;fontSize=12;" parent="1" vertex="1">
          <mxGeometry x="630" y="830" width="30" height="30" as="geometry" />
        </mxCell>
        <mxCell id="nLRBRidwz_fo-k9Ez-_o-89" value="0" style="text;html=1;align=center;verticalAlign=middle;resizable=0;points=[];autosize=1;strokeColor=none;fillColor=none;fontSize=12;" parent="1" vertex="1">
          <mxGeometry x="650" y="830" width="30" height="30" as="geometry" />
        </mxCell>
        <mxCell id="nLRBRidwz_fo-k9Ez-_o-90" value="0" style="text;html=1;align=center;verticalAlign=middle;resizable=0;points=[];autosize=1;strokeColor=none;fillColor=none;fontSize=12;" parent="1" vertex="1">
          <mxGeometry x="660" y="830" width="30" height="30" as="geometry" />
        </mxCell>
        <mxCell id="nLRBRidwz_fo-k9Ez-_o-91" value="0" style="text;html=1;align=center;verticalAlign=middle;resizable=0;points=[];autosize=1;strokeColor=none;fillColor=none;fontSize=12;" parent="1" vertex="1">
          <mxGeometry x="670" y="830" width="30" height="30" as="geometry" />
        </mxCell>
        <mxCell id="nLRBRidwz_fo-k9Ez-_o-92" value="0" style="text;html=1;align=center;verticalAlign=middle;resizable=0;points=[];autosize=1;strokeColor=none;fillColor=none;fontSize=12;" parent="1" vertex="1">
          <mxGeometry x="680" y="830" width="30" height="30" as="geometry" />
        </mxCell>
        <mxCell id="nLRBRidwz_fo-k9Ez-_o-93" value="0" style="text;html=1;align=center;verticalAlign=middle;resizable=0;points=[];autosize=1;strokeColor=none;fillColor=none;fontSize=12;" parent="1" vertex="1">
          <mxGeometry x="700" y="830" width="30" height="30" as="geometry" />
        </mxCell>
        <mxCell id="nLRBRidwz_fo-k9Ez-_o-94" value="0" style="text;html=1;align=center;verticalAlign=middle;resizable=0;points=[];autosize=1;strokeColor=none;fillColor=none;fontSize=12;" parent="1" vertex="1">
          <mxGeometry x="710" y="830" width="30" height="30" as="geometry" />
        </mxCell>
        <mxCell id="nLRBRidwz_fo-k9Ez-_o-95" value="0" style="text;html=1;align=center;verticalAlign=middle;resizable=0;points=[];autosize=1;strokeColor=none;fillColor=none;fontSize=12;" parent="1" vertex="1">
          <mxGeometry x="720" y="830" width="30" height="30" as="geometry" />
        </mxCell>
        <mxCell id="nLRBRidwz_fo-k9Ez-_o-96" value="0" style="text;html=1;align=center;verticalAlign=middle;resizable=0;points=[];autosize=1;strokeColor=none;fillColor=none;fontSize=12;" parent="1" vertex="1">
          <mxGeometry x="730" y="830" width="30" height="30" as="geometry" />
        </mxCell>
        <mxCell id="nLRBRidwz_fo-k9Ez-_o-97" value="&lt;font color=&quot;#999999&quot;&gt;0&lt;/font&gt;" style="text;html=1;align=center;verticalAlign=middle;resizable=0;points=[];autosize=1;strokeColor=none;fillColor=none;fontSize=12;" parent="1" vertex="1">
          <mxGeometry x="350" y="850" width="30" height="30" as="geometry" />
        </mxCell>
        <mxCell id="nLRBRidwz_fo-k9Ez-_o-98" value="0" style="text;html=1;align=center;verticalAlign=middle;resizable=0;points=[];autosize=1;strokeColor=none;fillColor=none;fontSize=12;" parent="1" vertex="1">
          <mxGeometry x="360" y="850" width="30" height="30" as="geometry" />
        </mxCell>
        <mxCell id="nLRBRidwz_fo-k9Ez-_o-99" value="1" style="text;html=1;align=center;verticalAlign=middle;resizable=0;points=[];autosize=1;strokeColor=none;fillColor=none;fontSize=12;" parent="1" vertex="1">
          <mxGeometry x="370" y="850" width="30" height="30" as="geometry" />
        </mxCell>
        <mxCell id="nLRBRidwz_fo-k9Ez-_o-100" value="1" style="text;html=1;align=center;verticalAlign=middle;resizable=0;points=[];autosize=1;strokeColor=none;fillColor=none;fontSize=12;" parent="1" vertex="1">
          <mxGeometry x="380" y="850" width="30" height="30" as="geometry" />
        </mxCell>
        <mxCell id="nLRBRidwz_fo-k9Ez-_o-101" value="&lt;font color=&quot;#ff0000&quot;&gt;1&lt;/font&gt;" style="text;html=1;align=center;verticalAlign=middle;resizable=0;points=[];autosize=1;strokeColor=none;fillColor=none;fontSize=12;" parent="1" vertex="1">
          <mxGeometry x="400" y="850" width="30" height="30" as="geometry" />
        </mxCell>
        <mxCell id="nLRBRidwz_fo-k9Ez-_o-102" value="&lt;font color=&quot;#ff0000&quot;&gt;1&lt;/font&gt;" style="text;html=1;align=center;verticalAlign=middle;resizable=0;points=[];autosize=1;strokeColor=none;fillColor=none;fontSize=12;" parent="1" vertex="1">
          <mxGeometry x="410" y="850" width="30" height="30" as="geometry" />
        </mxCell>
        <mxCell id="nLRBRidwz_fo-k9Ez-_o-103" value="0" style="text;html=1;align=center;verticalAlign=middle;resizable=0;points=[];autosize=1;strokeColor=none;fillColor=none;fontSize=12;" parent="1" vertex="1">
          <mxGeometry x="420" y="850" width="30" height="30" as="geometry" />
        </mxCell>
        <mxCell id="nLRBRidwz_fo-k9Ez-_o-104" value="0" style="text;html=1;align=center;verticalAlign=middle;resizable=0;points=[];autosize=1;strokeColor=none;fillColor=none;fontSize=12;" parent="1" vertex="1">
          <mxGeometry x="430" y="850" width="30" height="30" as="geometry" />
        </mxCell>
        <mxCell id="nLRBRidwz_fo-k9Ez-_o-105" value="0" style="text;html=1;align=center;verticalAlign=middle;resizable=0;points=[];autosize=1;strokeColor=none;fillColor=none;fontSize=12;" parent="1" vertex="1">
          <mxGeometry x="450" y="850" width="30" height="30" as="geometry" />
        </mxCell>
        <mxCell id="nLRBRidwz_fo-k9Ez-_o-106" value="0" style="text;html=1;align=center;verticalAlign=middle;resizable=0;points=[];autosize=1;strokeColor=none;fillColor=none;fontSize=12;" parent="1" vertex="1">
          <mxGeometry x="460" y="850" width="30" height="30" as="geometry" />
        </mxCell>
        <mxCell id="nLRBRidwz_fo-k9Ez-_o-107" value="0" style="text;html=1;align=center;verticalAlign=middle;resizable=0;points=[];autosize=1;strokeColor=none;fillColor=none;fontSize=12;" parent="1" vertex="1">
          <mxGeometry x="470" y="850" width="30" height="30" as="geometry" />
        </mxCell>
        <mxCell id="nLRBRidwz_fo-k9Ez-_o-108" value="0" style="text;html=1;align=center;verticalAlign=middle;resizable=0;points=[];autosize=1;strokeColor=none;fillColor=none;fontSize=12;" parent="1" vertex="1">
          <mxGeometry x="480" y="850" width="30" height="30" as="geometry" />
        </mxCell>
        <mxCell id="nLRBRidwz_fo-k9Ez-_o-109" value="0" style="text;html=1;align=center;verticalAlign=middle;resizable=0;points=[];autosize=1;strokeColor=none;fillColor=none;fontSize=12;" parent="1" vertex="1">
          <mxGeometry x="500" y="850" width="30" height="30" as="geometry" />
        </mxCell>
        <mxCell id="nLRBRidwz_fo-k9Ez-_o-110" value="0" style="text;html=1;align=center;verticalAlign=middle;resizable=0;points=[];autosize=1;strokeColor=none;fillColor=none;fontSize=12;" parent="1" vertex="1">
          <mxGeometry x="510" y="850" width="30" height="30" as="geometry" />
        </mxCell>
        <mxCell id="nLRBRidwz_fo-k9Ez-_o-111" value="0" style="text;html=1;align=center;verticalAlign=middle;resizable=0;points=[];autosize=1;strokeColor=none;fillColor=none;fontSize=12;" parent="1" vertex="1">
          <mxGeometry x="520" y="850" width="30" height="30" as="geometry" />
        </mxCell>
        <mxCell id="nLRBRidwz_fo-k9Ez-_o-112" value="0" style="text;html=1;align=center;verticalAlign=middle;resizable=0;points=[];autosize=1;strokeColor=none;fillColor=none;fontSize=12;" parent="1" vertex="1">
          <mxGeometry x="530" y="850" width="30" height="30" as="geometry" />
        </mxCell>
        <mxCell id="nLRBRidwz_fo-k9Ez-_o-113" value="0" style="text;html=1;align=center;verticalAlign=middle;resizable=0;points=[];autosize=1;strokeColor=none;fillColor=none;fontSize=12;" parent="1" vertex="1">
          <mxGeometry x="550" y="850" width="30" height="30" as="geometry" />
        </mxCell>
        <mxCell id="nLRBRidwz_fo-k9Ez-_o-114" value="0" style="text;html=1;align=center;verticalAlign=middle;resizable=0;points=[];autosize=1;strokeColor=none;fillColor=none;fontSize=12;" parent="1" vertex="1">
          <mxGeometry x="560" y="850" width="30" height="30" as="geometry" />
        </mxCell>
        <mxCell id="nLRBRidwz_fo-k9Ez-_o-115" value="0" style="text;html=1;align=center;verticalAlign=middle;resizable=0;points=[];autosize=1;strokeColor=none;fillColor=none;fontSize=12;" parent="1" vertex="1">
          <mxGeometry x="570" y="850" width="30" height="30" as="geometry" />
        </mxCell>
        <mxCell id="nLRBRidwz_fo-k9Ez-_o-116" value="0" style="text;html=1;align=center;verticalAlign=middle;resizable=0;points=[];autosize=1;strokeColor=none;fillColor=none;fontSize=12;" parent="1" vertex="1">
          <mxGeometry x="580" y="850" width="30" height="30" as="geometry" />
        </mxCell>
        <mxCell id="nLRBRidwz_fo-k9Ez-_o-117" value="0" style="text;html=1;align=center;verticalAlign=middle;resizable=0;points=[];autosize=1;strokeColor=none;fillColor=none;fontSize=12;" parent="1" vertex="1">
          <mxGeometry x="600" y="850" width="30" height="30" as="geometry" />
        </mxCell>
        <mxCell id="nLRBRidwz_fo-k9Ez-_o-118" value="0" style="text;html=1;align=center;verticalAlign=middle;resizable=0;points=[];autosize=1;strokeColor=none;fillColor=none;fontSize=12;" parent="1" vertex="1">
          <mxGeometry x="610" y="850" width="30" height="30" as="geometry" />
        </mxCell>
        <mxCell id="nLRBRidwz_fo-k9Ez-_o-119" value="0" style="text;html=1;align=center;verticalAlign=middle;resizable=0;points=[];autosize=1;strokeColor=none;fillColor=none;fontSize=12;" parent="1" vertex="1">
          <mxGeometry x="620" y="850" width="30" height="30" as="geometry" />
        </mxCell>
        <mxCell id="nLRBRidwz_fo-k9Ez-_o-120" value="0" style="text;html=1;align=center;verticalAlign=middle;resizable=0;points=[];autosize=1;strokeColor=none;fillColor=none;fontSize=12;" parent="1" vertex="1">
          <mxGeometry x="630" y="850" width="30" height="30" as="geometry" />
        </mxCell>
        <mxCell id="nLRBRidwz_fo-k9Ez-_o-121" value="0" style="text;html=1;align=center;verticalAlign=middle;resizable=0;points=[];autosize=1;strokeColor=none;fillColor=none;fontSize=12;" parent="1" vertex="1">
          <mxGeometry x="650" y="850" width="30" height="30" as="geometry" />
        </mxCell>
        <mxCell id="nLRBRidwz_fo-k9Ez-_o-122" value="0" style="text;html=1;align=center;verticalAlign=middle;resizable=0;points=[];autosize=1;strokeColor=none;fillColor=none;fontSize=12;" parent="1" vertex="1">
          <mxGeometry x="660" y="850" width="30" height="30" as="geometry" />
        </mxCell>
        <mxCell id="nLRBRidwz_fo-k9Ez-_o-123" value="0" style="text;html=1;align=center;verticalAlign=middle;resizable=0;points=[];autosize=1;strokeColor=none;fillColor=none;fontSize=12;" parent="1" vertex="1">
          <mxGeometry x="670" y="850" width="30" height="30" as="geometry" />
        </mxCell>
        <mxCell id="nLRBRidwz_fo-k9Ez-_o-124" value="0" style="text;html=1;align=center;verticalAlign=middle;resizable=0;points=[];autosize=1;strokeColor=none;fillColor=none;fontSize=12;" parent="1" vertex="1">
          <mxGeometry x="680" y="850" width="30" height="30" as="geometry" />
        </mxCell>
        <mxCell id="nLRBRidwz_fo-k9Ez-_o-125" value="0" style="text;html=1;align=center;verticalAlign=middle;resizable=0;points=[];autosize=1;strokeColor=none;fillColor=none;fontSize=12;" parent="1" vertex="1">
          <mxGeometry x="700" y="850" width="30" height="30" as="geometry" />
        </mxCell>
        <mxCell id="nLRBRidwz_fo-k9Ez-_o-126" value="0" style="text;html=1;align=center;verticalAlign=middle;resizable=0;points=[];autosize=1;strokeColor=none;fillColor=none;fontSize=12;" parent="1" vertex="1">
          <mxGeometry x="710" y="850" width="30" height="30" as="geometry" />
        </mxCell>
        <mxCell id="nLRBRidwz_fo-k9Ez-_o-127" value="0" style="text;html=1;align=center;verticalAlign=middle;resizable=0;points=[];autosize=1;strokeColor=none;fillColor=none;fontSize=12;" parent="1" vertex="1">
          <mxGeometry x="720" y="850" width="30" height="30" as="geometry" />
        </mxCell>
        <mxCell id="nLRBRidwz_fo-k9Ez-_o-128" value="0" style="text;html=1;align=center;verticalAlign=middle;resizable=0;points=[];autosize=1;strokeColor=none;fillColor=none;fontSize=12;" parent="1" vertex="1">
          <mxGeometry x="730" y="850" width="30" height="30" as="geometry" />
        </mxCell>
        <mxCell id="nLRBRidwz_fo-k9Ez-_o-129" value="&lt;font color=&quot;#999999&quot;&gt;0&lt;/font&gt;" style="text;html=1;align=center;verticalAlign=middle;resizable=0;points=[];autosize=1;strokeColor=none;fillColor=none;fontSize=12;" parent="1" vertex="1">
          <mxGeometry x="350" y="870" width="30" height="30" as="geometry" />
        </mxCell>
        <mxCell id="nLRBRidwz_fo-k9Ez-_o-130" value="0" style="text;html=1;align=center;verticalAlign=middle;resizable=0;points=[];autosize=1;strokeColor=none;fillColor=none;fontSize=12;" parent="1" vertex="1">
          <mxGeometry x="360" y="870" width="30" height="30" as="geometry" />
        </mxCell>
        <mxCell id="nLRBRidwz_fo-k9Ez-_o-131" value="1" style="text;html=1;align=center;verticalAlign=middle;resizable=0;points=[];autosize=1;strokeColor=none;fillColor=none;fontSize=12;" parent="1" vertex="1">
          <mxGeometry x="370" y="870" width="30" height="30" as="geometry" />
        </mxCell>
        <mxCell id="nLRBRidwz_fo-k9Ez-_o-132" value="1" style="text;html=1;align=center;verticalAlign=middle;resizable=0;points=[];autosize=1;strokeColor=none;fillColor=none;fontSize=12;" parent="1" vertex="1">
          <mxGeometry x="380" y="870" width="30" height="30" as="geometry" />
        </mxCell>
        <mxCell id="nLRBRidwz_fo-k9Ez-_o-133" value="1" style="text;html=1;align=center;verticalAlign=middle;resizable=0;points=[];autosize=1;strokeColor=none;fillColor=none;fontSize=12;" parent="1" vertex="1">
          <mxGeometry x="400" y="870" width="30" height="30" as="geometry" />
        </mxCell>
        <mxCell id="nLRBRidwz_fo-k9Ez-_o-134" value="1" style="text;html=1;align=center;verticalAlign=middle;resizable=0;points=[];autosize=1;strokeColor=none;fillColor=none;fontSize=12;" parent="1" vertex="1">
          <mxGeometry x="410" y="870" width="30" height="30" as="geometry" />
        </mxCell>
        <mxCell id="nLRBRidwz_fo-k9Ez-_o-135" value="&lt;font color=&quot;#ff0000&quot;&gt;1&lt;/font&gt;" style="text;html=1;align=center;verticalAlign=middle;resizable=0;points=[];autosize=1;strokeColor=none;fillColor=none;fontSize=12;" parent="1" vertex="1">
          <mxGeometry x="420" y="870" width="30" height="30" as="geometry" />
        </mxCell>
        <mxCell id="nLRBRidwz_fo-k9Ez-_o-136" value="&lt;font color=&quot;#ff0000&quot;&gt;1&lt;/font&gt;" style="text;html=1;align=center;verticalAlign=middle;resizable=0;points=[];autosize=1;strokeColor=none;fillColor=none;fontSize=12;" parent="1" vertex="1">
          <mxGeometry x="430" y="870" width="30" height="30" as="geometry" />
        </mxCell>
        <mxCell id="nLRBRidwz_fo-k9Ez-_o-137" value="&lt;font color=&quot;#ff0000&quot;&gt;1&lt;/font&gt;" style="text;html=1;align=center;verticalAlign=middle;resizable=0;points=[];autosize=1;strokeColor=none;fillColor=none;fontSize=12;" parent="1" vertex="1">
          <mxGeometry x="450" y="870" width="30" height="30" as="geometry" />
        </mxCell>
        <mxCell id="nLRBRidwz_fo-k9Ez-_o-138" value="&lt;font color=&quot;#ff0000&quot;&gt;1&lt;/font&gt;" style="text;html=1;align=center;verticalAlign=middle;resizable=0;points=[];autosize=1;strokeColor=none;fillColor=none;fontSize=12;" parent="1" vertex="1">
          <mxGeometry x="460" y="870" width="30" height="30" as="geometry" />
        </mxCell>
        <mxCell id="nLRBRidwz_fo-k9Ez-_o-139" value="0" style="text;html=1;align=center;verticalAlign=middle;resizable=0;points=[];autosize=1;strokeColor=none;fillColor=none;fontSize=12;" parent="1" vertex="1">
          <mxGeometry x="470" y="870" width="30" height="30" as="geometry" />
        </mxCell>
        <mxCell id="nLRBRidwz_fo-k9Ez-_o-140" value="0" style="text;html=1;align=center;verticalAlign=middle;resizable=0;points=[];autosize=1;strokeColor=none;fillColor=none;fontSize=12;" parent="1" vertex="1">
          <mxGeometry x="480" y="870" width="30" height="30" as="geometry" />
        </mxCell>
        <mxCell id="nLRBRidwz_fo-k9Ez-_o-141" value="0" style="text;html=1;align=center;verticalAlign=middle;resizable=0;points=[];autosize=1;strokeColor=none;fillColor=none;fontSize=12;" parent="1" vertex="1">
          <mxGeometry x="500" y="870" width="30" height="30" as="geometry" />
        </mxCell>
        <mxCell id="nLRBRidwz_fo-k9Ez-_o-142" value="0" style="text;html=1;align=center;verticalAlign=middle;resizable=0;points=[];autosize=1;strokeColor=none;fillColor=none;fontSize=12;" parent="1" vertex="1">
          <mxGeometry x="510" y="870" width="30" height="30" as="geometry" />
        </mxCell>
        <mxCell id="nLRBRidwz_fo-k9Ez-_o-143" value="0" style="text;html=1;align=center;verticalAlign=middle;resizable=0;points=[];autosize=1;strokeColor=none;fillColor=none;fontSize=12;" parent="1" vertex="1">
          <mxGeometry x="520" y="870" width="30" height="30" as="geometry" />
        </mxCell>
        <mxCell id="nLRBRidwz_fo-k9Ez-_o-144" value="0" style="text;html=1;align=center;verticalAlign=middle;resizable=0;points=[];autosize=1;strokeColor=none;fillColor=none;fontSize=12;" parent="1" vertex="1">
          <mxGeometry x="530" y="870" width="30" height="30" as="geometry" />
        </mxCell>
        <mxCell id="nLRBRidwz_fo-k9Ez-_o-145" value="0" style="text;html=1;align=center;verticalAlign=middle;resizable=0;points=[];autosize=1;strokeColor=none;fillColor=none;fontSize=12;" parent="1" vertex="1">
          <mxGeometry x="550" y="870" width="30" height="30" as="geometry" />
        </mxCell>
        <mxCell id="nLRBRidwz_fo-k9Ez-_o-146" value="0" style="text;html=1;align=center;verticalAlign=middle;resizable=0;points=[];autosize=1;strokeColor=none;fillColor=none;fontSize=12;" parent="1" vertex="1">
          <mxGeometry x="560" y="870" width="30" height="30" as="geometry" />
        </mxCell>
        <mxCell id="nLRBRidwz_fo-k9Ez-_o-147" value="0" style="text;html=1;align=center;verticalAlign=middle;resizable=0;points=[];autosize=1;strokeColor=none;fillColor=none;fontSize=12;" parent="1" vertex="1">
          <mxGeometry x="570" y="870" width="30" height="30" as="geometry" />
        </mxCell>
        <mxCell id="nLRBRidwz_fo-k9Ez-_o-148" value="0" style="text;html=1;align=center;verticalAlign=middle;resizable=0;points=[];autosize=1;strokeColor=none;fillColor=none;fontSize=12;" parent="1" vertex="1">
          <mxGeometry x="580" y="870" width="30" height="30" as="geometry" />
        </mxCell>
        <mxCell id="nLRBRidwz_fo-k9Ez-_o-149" value="0" style="text;html=1;align=center;verticalAlign=middle;resizable=0;points=[];autosize=1;strokeColor=none;fillColor=none;fontSize=12;" parent="1" vertex="1">
          <mxGeometry x="600" y="870" width="30" height="30" as="geometry" />
        </mxCell>
        <mxCell id="nLRBRidwz_fo-k9Ez-_o-150" value="0" style="text;html=1;align=center;verticalAlign=middle;resizable=0;points=[];autosize=1;strokeColor=none;fillColor=none;fontSize=12;" parent="1" vertex="1">
          <mxGeometry x="610" y="870" width="30" height="30" as="geometry" />
        </mxCell>
        <mxCell id="nLRBRidwz_fo-k9Ez-_o-151" value="0" style="text;html=1;align=center;verticalAlign=middle;resizable=0;points=[];autosize=1;strokeColor=none;fillColor=none;fontSize=12;" parent="1" vertex="1">
          <mxGeometry x="620" y="870" width="30" height="30" as="geometry" />
        </mxCell>
        <mxCell id="nLRBRidwz_fo-k9Ez-_o-152" value="0" style="text;html=1;align=center;verticalAlign=middle;resizable=0;points=[];autosize=1;strokeColor=none;fillColor=none;fontSize=12;" parent="1" vertex="1">
          <mxGeometry x="630" y="870" width="30" height="30" as="geometry" />
        </mxCell>
        <mxCell id="nLRBRidwz_fo-k9Ez-_o-153" value="0" style="text;html=1;align=center;verticalAlign=middle;resizable=0;points=[];autosize=1;strokeColor=none;fillColor=none;fontSize=12;" parent="1" vertex="1">
          <mxGeometry x="650" y="870" width="30" height="30" as="geometry" />
        </mxCell>
        <mxCell id="nLRBRidwz_fo-k9Ez-_o-154" value="0" style="text;html=1;align=center;verticalAlign=middle;resizable=0;points=[];autosize=1;strokeColor=none;fillColor=none;fontSize=12;" parent="1" vertex="1">
          <mxGeometry x="660" y="870" width="30" height="30" as="geometry" />
        </mxCell>
        <mxCell id="nLRBRidwz_fo-k9Ez-_o-155" value="0" style="text;html=1;align=center;verticalAlign=middle;resizable=0;points=[];autosize=1;strokeColor=none;fillColor=none;fontSize=12;" parent="1" vertex="1">
          <mxGeometry x="670" y="870" width="30" height="30" as="geometry" />
        </mxCell>
        <mxCell id="nLRBRidwz_fo-k9Ez-_o-156" value="0" style="text;html=1;align=center;verticalAlign=middle;resizable=0;points=[];autosize=1;strokeColor=none;fillColor=none;fontSize=12;" parent="1" vertex="1">
          <mxGeometry x="680" y="870" width="30" height="30" as="geometry" />
        </mxCell>
        <mxCell id="nLRBRidwz_fo-k9Ez-_o-157" value="0" style="text;html=1;align=center;verticalAlign=middle;resizable=0;points=[];autosize=1;strokeColor=none;fillColor=none;fontSize=12;" parent="1" vertex="1">
          <mxGeometry x="700" y="870" width="30" height="30" as="geometry" />
        </mxCell>
        <mxCell id="nLRBRidwz_fo-k9Ez-_o-158" value="0" style="text;html=1;align=center;verticalAlign=middle;resizable=0;points=[];autosize=1;strokeColor=none;fillColor=none;fontSize=12;" parent="1" vertex="1">
          <mxGeometry x="710" y="870" width="30" height="30" as="geometry" />
        </mxCell>
        <mxCell id="nLRBRidwz_fo-k9Ez-_o-159" value="0" style="text;html=1;align=center;verticalAlign=middle;resizable=0;points=[];autosize=1;strokeColor=none;fillColor=none;fontSize=12;" parent="1" vertex="1">
          <mxGeometry x="720" y="870" width="30" height="30" as="geometry" />
        </mxCell>
        <mxCell id="nLRBRidwz_fo-k9Ez-_o-160" value="0" style="text;html=1;align=center;verticalAlign=middle;resizable=0;points=[];autosize=1;strokeColor=none;fillColor=none;fontSize=12;" parent="1" vertex="1">
          <mxGeometry x="730" y="870" width="30" height="30" as="geometry" />
        </mxCell>
        <mxCell id="nLRBRidwz_fo-k9Ez-_o-161" value="&lt;font color=&quot;#999999&quot;&gt;0&lt;/font&gt;" style="text;html=1;align=center;verticalAlign=middle;resizable=0;points=[];autosize=1;strokeColor=none;fillColor=none;fontSize=12;" parent="1" vertex="1">
          <mxGeometry x="350" y="890" width="30" height="30" as="geometry" />
        </mxCell>
        <mxCell id="nLRBRidwz_fo-k9Ez-_o-162" value="0" style="text;html=1;align=center;verticalAlign=middle;resizable=0;points=[];autosize=1;strokeColor=none;fillColor=none;fontSize=12;" parent="1" vertex="1">
          <mxGeometry x="360" y="890" width="30" height="30" as="geometry" />
        </mxCell>
        <mxCell id="nLRBRidwz_fo-k9Ez-_o-163" value="1" style="text;html=1;align=center;verticalAlign=middle;resizable=0;points=[];autosize=1;strokeColor=none;fillColor=none;fontSize=12;" parent="1" vertex="1">
          <mxGeometry x="370" y="890" width="30" height="30" as="geometry" />
        </mxCell>
        <mxCell id="nLRBRidwz_fo-k9Ez-_o-164" value="1" style="text;html=1;align=center;verticalAlign=middle;resizable=0;points=[];autosize=1;strokeColor=none;fillColor=none;fontSize=12;" parent="1" vertex="1">
          <mxGeometry x="380" y="890" width="30" height="30" as="geometry" />
        </mxCell>
        <mxCell id="nLRBRidwz_fo-k9Ez-_o-165" value="1" style="text;html=1;align=center;verticalAlign=middle;resizable=0;points=[];autosize=1;strokeColor=none;fillColor=none;fontSize=12;" parent="1" vertex="1">
          <mxGeometry x="400" y="890" width="30" height="30" as="geometry" />
        </mxCell>
        <mxCell id="nLRBRidwz_fo-k9Ez-_o-166" value="1" style="text;html=1;align=center;verticalAlign=middle;resizable=0;points=[];autosize=1;strokeColor=none;fillColor=none;fontSize=12;" parent="1" vertex="1">
          <mxGeometry x="410" y="890" width="30" height="30" as="geometry" />
        </mxCell>
        <mxCell id="nLRBRidwz_fo-k9Ez-_o-167" value="1" style="text;html=1;align=center;verticalAlign=middle;resizable=0;points=[];autosize=1;strokeColor=none;fillColor=none;fontSize=12;" parent="1" vertex="1">
          <mxGeometry x="420" y="890" width="30" height="30" as="geometry" />
        </mxCell>
        <mxCell id="nLRBRidwz_fo-k9Ez-_o-168" value="1" style="text;html=1;align=center;verticalAlign=middle;resizable=0;points=[];autosize=1;strokeColor=none;fillColor=none;fontSize=12;" parent="1" vertex="1">
          <mxGeometry x="430" y="890" width="30" height="30" as="geometry" />
        </mxCell>
        <mxCell id="nLRBRidwz_fo-k9Ez-_o-169" value="1" style="text;html=1;align=center;verticalAlign=middle;resizable=0;points=[];autosize=1;strokeColor=none;fillColor=none;fontSize=12;" parent="1" vertex="1">
          <mxGeometry x="450" y="890" width="30" height="30" as="geometry" />
        </mxCell>
        <mxCell id="nLRBRidwz_fo-k9Ez-_o-170" value="1" style="text;html=1;align=center;verticalAlign=middle;resizable=0;points=[];autosize=1;strokeColor=none;fillColor=none;fontSize=12;" parent="1" vertex="1">
          <mxGeometry x="460" y="890" width="30" height="30" as="geometry" />
        </mxCell>
        <mxCell id="nLRBRidwz_fo-k9Ez-_o-171" value="&lt;font color=&quot;#ff0000&quot;&gt;1&lt;/font&gt;" style="text;html=1;align=center;verticalAlign=middle;resizable=0;points=[];autosize=1;strokeColor=none;fillColor=none;fontSize=12;" parent="1" vertex="1">
          <mxGeometry x="470" y="890" width="30" height="30" as="geometry" />
        </mxCell>
        <mxCell id="nLRBRidwz_fo-k9Ez-_o-172" value="&lt;font color=&quot;#ff0000&quot;&gt;1&lt;/font&gt;" style="text;html=1;align=center;verticalAlign=middle;resizable=0;points=[];autosize=1;strokeColor=none;fillColor=none;fontSize=12;" parent="1" vertex="1">
          <mxGeometry x="480" y="890" width="30" height="30" as="geometry" />
        </mxCell>
        <mxCell id="nLRBRidwz_fo-k9Ez-_o-173" value="&lt;font color=&quot;#ff0000&quot;&gt;1&lt;/font&gt;" style="text;html=1;align=center;verticalAlign=middle;resizable=0;points=[];autosize=1;strokeColor=none;fillColor=none;fontSize=12;" parent="1" vertex="1">
          <mxGeometry x="500" y="890" width="30" height="30" as="geometry" />
        </mxCell>
        <mxCell id="nLRBRidwz_fo-k9Ez-_o-174" value="&lt;font color=&quot;#ff0000&quot;&gt;1&lt;/font&gt;" style="text;html=1;align=center;verticalAlign=middle;resizable=0;points=[];autosize=1;strokeColor=none;fillColor=none;fontSize=12;" parent="1" vertex="1">
          <mxGeometry x="510" y="890" width="30" height="30" as="geometry" />
        </mxCell>
        <mxCell id="nLRBRidwz_fo-k9Ez-_o-175" value="&lt;font color=&quot;#ff0000&quot;&gt;1&lt;/font&gt;" style="text;html=1;align=center;verticalAlign=middle;resizable=0;points=[];autosize=1;strokeColor=none;fillColor=none;fontSize=12;" parent="1" vertex="1">
          <mxGeometry x="520" y="890" width="30" height="30" as="geometry" />
        </mxCell>
        <mxCell id="nLRBRidwz_fo-k9Ez-_o-176" value="&lt;font color=&quot;#ff0000&quot;&gt;1&lt;/font&gt;" style="text;html=1;align=center;verticalAlign=middle;resizable=0;points=[];autosize=1;strokeColor=none;fillColor=none;fontSize=12;" parent="1" vertex="1">
          <mxGeometry x="530" y="890" width="30" height="30" as="geometry" />
        </mxCell>
        <mxCell id="nLRBRidwz_fo-k9Ez-_o-177" value="&lt;font color=&quot;#ff0000&quot;&gt;1&lt;/font&gt;" style="text;html=1;align=center;verticalAlign=middle;resizable=0;points=[];autosize=1;strokeColor=none;fillColor=none;fontSize=12;" parent="1" vertex="1">
          <mxGeometry x="550" y="890" width="30" height="30" as="geometry" />
        </mxCell>
        <mxCell id="nLRBRidwz_fo-k9Ez-_o-178" value="&lt;font color=&quot;#ff0000&quot;&gt;1&lt;/font&gt;" style="text;html=1;align=center;verticalAlign=middle;resizable=0;points=[];autosize=1;strokeColor=none;fillColor=none;fontSize=12;" parent="1" vertex="1">
          <mxGeometry x="560" y="890" width="30" height="30" as="geometry" />
        </mxCell>
        <mxCell id="nLRBRidwz_fo-k9Ez-_o-179" value="0" style="text;html=1;align=center;verticalAlign=middle;resizable=0;points=[];autosize=1;strokeColor=none;fillColor=none;fontSize=12;" parent="1" vertex="1">
          <mxGeometry x="570" y="890" width="30" height="30" as="geometry" />
        </mxCell>
        <mxCell id="nLRBRidwz_fo-k9Ez-_o-180" value="0" style="text;html=1;align=center;verticalAlign=middle;resizable=0;points=[];autosize=1;strokeColor=none;fillColor=none;fontSize=12;" parent="1" vertex="1">
          <mxGeometry x="580" y="890" width="30" height="30" as="geometry" />
        </mxCell>
        <mxCell id="nLRBRidwz_fo-k9Ez-_o-181" value="0" style="text;html=1;align=center;verticalAlign=middle;resizable=0;points=[];autosize=1;strokeColor=none;fillColor=none;fontSize=12;" parent="1" vertex="1">
          <mxGeometry x="600" y="890" width="30" height="30" as="geometry" />
        </mxCell>
        <mxCell id="nLRBRidwz_fo-k9Ez-_o-182" value="0" style="text;html=1;align=center;verticalAlign=middle;resizable=0;points=[];autosize=1;strokeColor=none;fillColor=none;fontSize=12;" parent="1" vertex="1">
          <mxGeometry x="610" y="890" width="30" height="30" as="geometry" />
        </mxCell>
        <mxCell id="nLRBRidwz_fo-k9Ez-_o-183" value="0" style="text;html=1;align=center;verticalAlign=middle;resizable=0;points=[];autosize=1;strokeColor=none;fillColor=none;fontSize=12;" parent="1" vertex="1">
          <mxGeometry x="620" y="890" width="30" height="30" as="geometry" />
        </mxCell>
        <mxCell id="nLRBRidwz_fo-k9Ez-_o-184" value="0" style="text;html=1;align=center;verticalAlign=middle;resizable=0;points=[];autosize=1;strokeColor=none;fillColor=none;fontSize=12;" parent="1" vertex="1">
          <mxGeometry x="630" y="890" width="30" height="30" as="geometry" />
        </mxCell>
        <mxCell id="nLRBRidwz_fo-k9Ez-_o-185" value="0" style="text;html=1;align=center;verticalAlign=middle;resizable=0;points=[];autosize=1;strokeColor=none;fillColor=none;fontSize=12;" parent="1" vertex="1">
          <mxGeometry x="650" y="890" width="30" height="30" as="geometry" />
        </mxCell>
        <mxCell id="nLRBRidwz_fo-k9Ez-_o-186" value="0" style="text;html=1;align=center;verticalAlign=middle;resizable=0;points=[];autosize=1;strokeColor=none;fillColor=none;fontSize=12;" parent="1" vertex="1">
          <mxGeometry x="660" y="890" width="30" height="30" as="geometry" />
        </mxCell>
        <mxCell id="nLRBRidwz_fo-k9Ez-_o-187" value="0" style="text;html=1;align=center;verticalAlign=middle;resizable=0;points=[];autosize=1;strokeColor=none;fillColor=none;fontSize=12;" parent="1" vertex="1">
          <mxGeometry x="670" y="890" width="30" height="30" as="geometry" />
        </mxCell>
        <mxCell id="nLRBRidwz_fo-k9Ez-_o-188" value="0" style="text;html=1;align=center;verticalAlign=middle;resizable=0;points=[];autosize=1;strokeColor=none;fillColor=none;fontSize=12;" parent="1" vertex="1">
          <mxGeometry x="680" y="890" width="30" height="30" as="geometry" />
        </mxCell>
        <mxCell id="nLRBRidwz_fo-k9Ez-_o-189" value="0" style="text;html=1;align=center;verticalAlign=middle;resizable=0;points=[];autosize=1;strokeColor=none;fillColor=none;fontSize=12;" parent="1" vertex="1">
          <mxGeometry x="700" y="890" width="30" height="30" as="geometry" />
        </mxCell>
        <mxCell id="nLRBRidwz_fo-k9Ez-_o-190" value="0" style="text;html=1;align=center;verticalAlign=middle;resizable=0;points=[];autosize=1;strokeColor=none;fillColor=none;fontSize=12;" parent="1" vertex="1">
          <mxGeometry x="710" y="890" width="30" height="30" as="geometry" />
        </mxCell>
        <mxCell id="nLRBRidwz_fo-k9Ez-_o-191" value="0" style="text;html=1;align=center;verticalAlign=middle;resizable=0;points=[];autosize=1;strokeColor=none;fillColor=none;fontSize=12;" parent="1" vertex="1">
          <mxGeometry x="720" y="890" width="30" height="30" as="geometry" />
        </mxCell>
        <mxCell id="nLRBRidwz_fo-k9Ez-_o-192" value="0" style="text;html=1;align=center;verticalAlign=middle;resizable=0;points=[];autosize=1;strokeColor=none;fillColor=none;fontSize=12;" parent="1" vertex="1">
          <mxGeometry x="730" y="890" width="30" height="30" as="geometry" />
        </mxCell>
        <mxCell id="nLRBRidwz_fo-k9Ez-_o-193" value="&lt;font color=&quot;#999999&quot;&gt;0&lt;/font&gt;" style="text;html=1;align=center;verticalAlign=middle;resizable=0;points=[];autosize=1;strokeColor=none;fillColor=none;fontSize=12;" parent="1" vertex="1">
          <mxGeometry x="350" y="910" width="30" height="30" as="geometry" />
        </mxCell>
        <mxCell id="nLRBRidwz_fo-k9Ez-_o-194" value="0" style="text;html=1;align=center;verticalAlign=middle;resizable=0;points=[];autosize=1;strokeColor=none;fillColor=none;fontSize=12;" parent="1" vertex="1">
          <mxGeometry x="360" y="910" width="30" height="30" as="geometry" />
        </mxCell>
        <mxCell id="nLRBRidwz_fo-k9Ez-_o-195" value="1" style="text;html=1;align=center;verticalAlign=middle;resizable=0;points=[];autosize=1;strokeColor=none;fillColor=none;fontSize=12;" parent="1" vertex="1">
          <mxGeometry x="370" y="910" width="30" height="30" as="geometry" />
        </mxCell>
        <mxCell id="nLRBRidwz_fo-k9Ez-_o-196" value="1" style="text;html=1;align=center;verticalAlign=middle;resizable=0;points=[];autosize=1;strokeColor=none;fillColor=none;fontSize=12;" parent="1" vertex="1">
          <mxGeometry x="380" y="910" width="30" height="30" as="geometry" />
        </mxCell>
        <mxCell id="nLRBRidwz_fo-k9Ez-_o-197" value="1" style="text;html=1;align=center;verticalAlign=middle;resizable=0;points=[];autosize=1;strokeColor=none;fillColor=none;fontSize=12;" parent="1" vertex="1">
          <mxGeometry x="400" y="910" width="30" height="30" as="geometry" />
        </mxCell>
        <mxCell id="nLRBRidwz_fo-k9Ez-_o-198" value="1" style="text;html=1;align=center;verticalAlign=middle;resizable=0;points=[];autosize=1;strokeColor=none;fillColor=none;fontSize=12;" parent="1" vertex="1">
          <mxGeometry x="410" y="910" width="30" height="30" as="geometry" />
        </mxCell>
        <mxCell id="nLRBRidwz_fo-k9Ez-_o-199" value="1" style="text;html=1;align=center;verticalAlign=middle;resizable=0;points=[];autosize=1;strokeColor=none;fillColor=none;fontSize=12;" parent="1" vertex="1">
          <mxGeometry x="420" y="910" width="30" height="30" as="geometry" />
        </mxCell>
        <mxCell id="nLRBRidwz_fo-k9Ez-_o-200" value="1" style="text;html=1;align=center;verticalAlign=middle;resizable=0;points=[];autosize=1;strokeColor=none;fillColor=none;fontSize=12;" parent="1" vertex="1">
          <mxGeometry x="430" y="910" width="30" height="30" as="geometry" />
        </mxCell>
        <mxCell id="nLRBRidwz_fo-k9Ez-_o-201" value="1" style="text;html=1;align=center;verticalAlign=middle;resizable=0;points=[];autosize=1;strokeColor=none;fillColor=none;fontSize=12;" parent="1" vertex="1">
          <mxGeometry x="450" y="910" width="30" height="30" as="geometry" />
        </mxCell>
        <mxCell id="nLRBRidwz_fo-k9Ez-_o-202" value="1" style="text;html=1;align=center;verticalAlign=middle;resizable=0;points=[];autosize=1;strokeColor=none;fillColor=none;fontSize=12;" parent="1" vertex="1">
          <mxGeometry x="460" y="910" width="30" height="30" as="geometry" />
        </mxCell>
        <mxCell id="nLRBRidwz_fo-k9Ez-_o-203" value="1" style="text;html=1;align=center;verticalAlign=middle;resizable=0;points=[];autosize=1;strokeColor=none;fillColor=none;fontSize=12;" parent="1" vertex="1">
          <mxGeometry x="470" y="910" width="30" height="30" as="geometry" />
        </mxCell>
        <mxCell id="nLRBRidwz_fo-k9Ez-_o-204" value="1" style="text;html=1;align=center;verticalAlign=middle;resizable=0;points=[];autosize=1;strokeColor=none;fillColor=none;fontSize=12;" parent="1" vertex="1">
          <mxGeometry x="480" y="910" width="30" height="30" as="geometry" />
        </mxCell>
        <mxCell id="nLRBRidwz_fo-k9Ez-_o-205" value="1" style="text;html=1;align=center;verticalAlign=middle;resizable=0;points=[];autosize=1;strokeColor=none;fillColor=none;fontSize=12;" parent="1" vertex="1">
          <mxGeometry x="500" y="910" width="30" height="30" as="geometry" />
        </mxCell>
        <mxCell id="nLRBRidwz_fo-k9Ez-_o-206" value="1" style="text;html=1;align=center;verticalAlign=middle;resizable=0;points=[];autosize=1;strokeColor=none;fillColor=none;fontSize=12;" parent="1" vertex="1">
          <mxGeometry x="510" y="910" width="30" height="30" as="geometry" />
        </mxCell>
        <mxCell id="nLRBRidwz_fo-k9Ez-_o-207" value="1" style="text;html=1;align=center;verticalAlign=middle;resizable=0;points=[];autosize=1;strokeColor=none;fillColor=none;fontSize=12;" parent="1" vertex="1">
          <mxGeometry x="520" y="910" width="30" height="30" as="geometry" />
        </mxCell>
        <mxCell id="nLRBRidwz_fo-k9Ez-_o-208" value="1" style="text;html=1;align=center;verticalAlign=middle;resizable=0;points=[];autosize=1;strokeColor=none;fillColor=none;fontSize=12;" parent="1" vertex="1">
          <mxGeometry x="530" y="910" width="30" height="30" as="geometry" />
        </mxCell>
        <mxCell id="nLRBRidwz_fo-k9Ez-_o-209" value="1" style="text;html=1;align=center;verticalAlign=middle;resizable=0;points=[];autosize=1;strokeColor=none;fillColor=none;fontSize=12;" parent="1" vertex="1">
          <mxGeometry x="550" y="910" width="30" height="30" as="geometry" />
        </mxCell>
        <mxCell id="nLRBRidwz_fo-k9Ez-_o-210" value="1" style="text;html=1;align=center;verticalAlign=middle;resizable=0;points=[];autosize=1;strokeColor=none;fillColor=none;fontSize=12;" parent="1" vertex="1">
          <mxGeometry x="560" y="910" width="30" height="30" as="geometry" />
        </mxCell>
        <mxCell id="nLRBRidwz_fo-k9Ez-_o-211" value="&lt;font color=&quot;#ff0000&quot;&gt;1&lt;/font&gt;" style="text;html=1;align=center;verticalAlign=middle;resizable=0;points=[];autosize=1;strokeColor=none;fillColor=none;fontSize=12;" parent="1" vertex="1">
          <mxGeometry x="570" y="910" width="30" height="30" as="geometry" />
        </mxCell>
        <mxCell id="nLRBRidwz_fo-k9Ez-_o-212" value="1" style="text;html=1;align=center;verticalAlign=middle;resizable=0;points=[];autosize=1;strokeColor=none;fillColor=none;fontSize=12;fontColor=#FF0000;" parent="1" vertex="1">
          <mxGeometry x="580" y="910" width="30" height="30" as="geometry" />
        </mxCell>
        <mxCell id="nLRBRidwz_fo-k9Ez-_o-213" value="1" style="text;html=1;align=center;verticalAlign=middle;resizable=0;points=[];autosize=1;strokeColor=none;fillColor=none;fontSize=12;fontColor=#FF0000;" parent="1" vertex="1">
          <mxGeometry x="600" y="910" width="30" height="30" as="geometry" />
        </mxCell>
        <mxCell id="nLRBRidwz_fo-k9Ez-_o-214" value="1" style="text;html=1;align=center;verticalAlign=middle;resizable=0;points=[];autosize=1;strokeColor=none;fillColor=none;fontSize=12;fontColor=#FF0000;" parent="1" vertex="1">
          <mxGeometry x="610" y="910" width="30" height="30" as="geometry" />
        </mxCell>
        <mxCell id="nLRBRidwz_fo-k9Ez-_o-215" value="1" style="text;html=1;align=center;verticalAlign=middle;resizable=0;points=[];autosize=1;strokeColor=none;fillColor=none;fontSize=12;fontColor=#FF0000;" parent="1" vertex="1">
          <mxGeometry x="620" y="910" width="30" height="30" as="geometry" />
        </mxCell>
        <mxCell id="nLRBRidwz_fo-k9Ez-_o-216" value="1" style="text;html=1;align=center;verticalAlign=middle;resizable=0;points=[];autosize=1;strokeColor=none;fillColor=none;fontSize=12;fontColor=#FF0000;" parent="1" vertex="1">
          <mxGeometry x="630" y="910" width="30" height="30" as="geometry" />
        </mxCell>
        <mxCell id="nLRBRidwz_fo-k9Ez-_o-217" value="1" style="text;html=1;align=center;verticalAlign=middle;resizable=0;points=[];autosize=1;strokeColor=none;fillColor=none;fontSize=12;fontColor=#FF0000;" parent="1" vertex="1">
          <mxGeometry x="650" y="910" width="30" height="30" as="geometry" />
        </mxCell>
        <mxCell id="nLRBRidwz_fo-k9Ez-_o-218" value="1" style="text;html=1;align=center;verticalAlign=middle;resizable=0;points=[];autosize=1;strokeColor=none;fillColor=none;fontSize=12;fontColor=#FF0000;" parent="1" vertex="1">
          <mxGeometry x="660" y="910" width="30" height="30" as="geometry" />
        </mxCell>
        <mxCell id="nLRBRidwz_fo-k9Ez-_o-219" value="1" style="text;html=1;align=center;verticalAlign=middle;resizable=0;points=[];autosize=1;strokeColor=none;fillColor=none;fontSize=12;fontColor=#FF0000;" parent="1" vertex="1">
          <mxGeometry x="670" y="910" width="30" height="30" as="geometry" />
        </mxCell>
        <mxCell id="nLRBRidwz_fo-k9Ez-_o-220" value="1" style="text;html=1;align=center;verticalAlign=middle;resizable=0;points=[];autosize=1;strokeColor=none;fillColor=none;fontSize=12;fontColor=#FF0000;" parent="1" vertex="1">
          <mxGeometry x="680" y="910" width="30" height="30" as="geometry" />
        </mxCell>
        <mxCell id="nLRBRidwz_fo-k9Ez-_o-221" value="1" style="text;html=1;align=center;verticalAlign=middle;resizable=0;points=[];autosize=1;strokeColor=none;fillColor=none;fontSize=12;fontColor=#FF0000;" parent="1" vertex="1">
          <mxGeometry x="700" y="910" width="30" height="30" as="geometry" />
        </mxCell>
        <mxCell id="nLRBRidwz_fo-k9Ez-_o-222" value="1" style="text;html=1;align=center;verticalAlign=middle;resizable=0;points=[];autosize=1;strokeColor=none;fillColor=none;fontSize=12;fontColor=#FF0000;" parent="1" vertex="1">
          <mxGeometry x="710" y="910" width="30" height="30" as="geometry" />
        </mxCell>
        <mxCell id="nLRBRidwz_fo-k9Ez-_o-223" value="1" style="text;html=1;align=center;verticalAlign=middle;resizable=0;points=[];autosize=1;strokeColor=none;fillColor=none;fontSize=12;fontColor=#FF0000;" parent="1" vertex="1">
          <mxGeometry x="720" y="910" width="30" height="30" as="geometry" />
        </mxCell>
        <mxCell id="nLRBRidwz_fo-k9Ez-_o-224" value="1" style="text;html=1;align=center;verticalAlign=middle;resizable=0;points=[];autosize=1;strokeColor=none;fillColor=none;fontSize=12;fontColor=#FF0000;" parent="1" vertex="1">
          <mxGeometry x="730" y="910" width="30" height="30" as="geometry" />
        </mxCell>
        <mxCell id="nLRBRidwz_fo-k9Ez-_o-225" value="&lt;font color=&quot;#999999&quot;&gt;0&lt;/font&gt;" style="text;html=1;align=center;verticalAlign=middle;resizable=0;points=[];autosize=1;strokeColor=none;fillColor=none;fontSize=12;" parent="1" vertex="1">
          <mxGeometry x="350" y="930" width="30" height="30" as="geometry" />
        </mxCell>
        <mxCell id="nLRBRidwz_fo-k9Ez-_o-226" value="1" style="text;html=1;align=center;verticalAlign=middle;resizable=0;points=[];autosize=1;strokeColor=none;fillColor=none;fontSize=12;" parent="1" vertex="1">
          <mxGeometry x="360" y="930" width="30" height="30" as="geometry" />
        </mxCell>
        <mxCell id="nLRBRidwz_fo-k9Ez-_o-227" value="0" style="text;html=1;align=center;verticalAlign=middle;resizable=0;points=[];autosize=1;strokeColor=none;fillColor=none;fontSize=12;" parent="1" vertex="1">
          <mxGeometry x="370" y="930" width="30" height="30" as="geometry" />
        </mxCell>
        <mxCell id="nLRBRidwz_fo-k9Ez-_o-228" value="0" style="text;html=1;align=center;verticalAlign=middle;resizable=0;points=[];autosize=1;strokeColor=none;fillColor=none;fontSize=12;" parent="1" vertex="1">
          <mxGeometry x="380" y="930" width="30" height="30" as="geometry" />
        </mxCell>
        <mxCell id="nLRBRidwz_fo-k9Ez-_o-229" value="0" style="text;html=1;align=center;verticalAlign=middle;resizable=0;points=[];autosize=1;strokeColor=none;fillColor=none;fontSize=12;" parent="1" vertex="1">
          <mxGeometry x="400" y="930" width="30" height="30" as="geometry" />
        </mxCell>
        <mxCell id="nLRBRidwz_fo-k9Ez-_o-230" value="0" style="text;html=1;align=center;verticalAlign=middle;resizable=0;points=[];autosize=1;strokeColor=none;fillColor=none;fontSize=12;" parent="1" vertex="1">
          <mxGeometry x="410" y="930" width="30" height="30" as="geometry" />
        </mxCell>
        <mxCell id="nLRBRidwz_fo-k9Ez-_o-231" value="0" style="text;html=1;align=center;verticalAlign=middle;resizable=0;points=[];autosize=1;strokeColor=none;fillColor=none;fontSize=12;" parent="1" vertex="1">
          <mxGeometry x="420" y="930" width="30" height="30" as="geometry" />
        </mxCell>
        <mxCell id="nLRBRidwz_fo-k9Ez-_o-232" value="0" style="text;html=1;align=center;verticalAlign=middle;resizable=0;points=[];autosize=1;strokeColor=none;fillColor=none;fontSize=12;" parent="1" vertex="1">
          <mxGeometry x="430" y="930" width="30" height="30" as="geometry" />
        </mxCell>
        <mxCell id="nLRBRidwz_fo-k9Ez-_o-233" value="0" style="text;html=1;align=center;verticalAlign=middle;resizable=0;points=[];autosize=1;strokeColor=none;fillColor=none;fontSize=12;" parent="1" vertex="1">
          <mxGeometry x="450" y="930" width="30" height="30" as="geometry" />
        </mxCell>
        <mxCell id="nLRBRidwz_fo-k9Ez-_o-234" value="0" style="text;html=1;align=center;verticalAlign=middle;resizable=0;points=[];autosize=1;strokeColor=none;fillColor=none;fontSize=12;" parent="1" vertex="1">
          <mxGeometry x="460" y="930" width="30" height="30" as="geometry" />
        </mxCell>
        <mxCell id="nLRBRidwz_fo-k9Ez-_o-235" value="0" style="text;html=1;align=center;verticalAlign=middle;resizable=0;points=[];autosize=1;strokeColor=none;fillColor=none;fontSize=12;" parent="1" vertex="1">
          <mxGeometry x="470" y="930" width="30" height="30" as="geometry" />
        </mxCell>
        <mxCell id="nLRBRidwz_fo-k9Ez-_o-236" value="0" style="text;html=1;align=center;verticalAlign=middle;resizable=0;points=[];autosize=1;strokeColor=none;fillColor=none;fontSize=12;" parent="1" vertex="1">
          <mxGeometry x="480" y="930" width="30" height="30" as="geometry" />
        </mxCell>
        <mxCell id="nLRBRidwz_fo-k9Ez-_o-237" value="0" style="text;html=1;align=center;verticalAlign=middle;resizable=0;points=[];autosize=1;strokeColor=none;fillColor=none;fontSize=12;" parent="1" vertex="1">
          <mxGeometry x="500" y="930" width="30" height="30" as="geometry" />
        </mxCell>
        <mxCell id="nLRBRidwz_fo-k9Ez-_o-238" value="0" style="text;html=1;align=center;verticalAlign=middle;resizable=0;points=[];autosize=1;strokeColor=none;fillColor=none;fontSize=12;" parent="1" vertex="1">
          <mxGeometry x="510" y="930" width="30" height="30" as="geometry" />
        </mxCell>
        <mxCell id="nLRBRidwz_fo-k9Ez-_o-239" value="0" style="text;html=1;align=center;verticalAlign=middle;resizable=0;points=[];autosize=1;strokeColor=none;fillColor=none;fontSize=12;" parent="1" vertex="1">
          <mxGeometry x="520" y="930" width="30" height="30" as="geometry" />
        </mxCell>
        <mxCell id="nLRBRidwz_fo-k9Ez-_o-240" value="0" style="text;html=1;align=center;verticalAlign=middle;resizable=0;points=[];autosize=1;strokeColor=none;fillColor=none;fontSize=12;" parent="1" vertex="1">
          <mxGeometry x="530" y="930" width="30" height="30" as="geometry" />
        </mxCell>
        <mxCell id="nLRBRidwz_fo-k9Ez-_o-241" value="0" style="text;html=1;align=center;verticalAlign=middle;resizable=0;points=[];autosize=1;strokeColor=none;fillColor=none;fontSize=12;" parent="1" vertex="1">
          <mxGeometry x="550" y="930" width="30" height="30" as="geometry" />
        </mxCell>
        <mxCell id="nLRBRidwz_fo-k9Ez-_o-242" value="0" style="text;html=1;align=center;verticalAlign=middle;resizable=0;points=[];autosize=1;strokeColor=none;fillColor=none;fontSize=12;" parent="1" vertex="1">
          <mxGeometry x="560" y="930" width="30" height="30" as="geometry" />
        </mxCell>
        <mxCell id="nLRBRidwz_fo-k9Ez-_o-243" value="0" style="text;html=1;align=center;verticalAlign=middle;resizable=0;points=[];autosize=1;strokeColor=none;fillColor=none;fontSize=12;" parent="1" vertex="1">
          <mxGeometry x="570" y="930" width="30" height="30" as="geometry" />
        </mxCell>
        <mxCell id="nLRBRidwz_fo-k9Ez-_o-244" value="0" style="text;html=1;align=center;verticalAlign=middle;resizable=0;points=[];autosize=1;strokeColor=none;fillColor=none;fontSize=12;" parent="1" vertex="1">
          <mxGeometry x="580" y="930" width="30" height="30" as="geometry" />
        </mxCell>
        <mxCell id="nLRBRidwz_fo-k9Ez-_o-245" value="0" style="text;html=1;align=center;verticalAlign=middle;resizable=0;points=[];autosize=1;strokeColor=none;fillColor=none;fontSize=12;" parent="1" vertex="1">
          <mxGeometry x="600" y="930" width="30" height="30" as="geometry" />
        </mxCell>
        <mxCell id="nLRBRidwz_fo-k9Ez-_o-246" value="0" style="text;html=1;align=center;verticalAlign=middle;resizable=0;points=[];autosize=1;strokeColor=none;fillColor=none;fontSize=12;" parent="1" vertex="1">
          <mxGeometry x="610" y="930" width="30" height="30" as="geometry" />
        </mxCell>
        <mxCell id="nLRBRidwz_fo-k9Ez-_o-247" value="0" style="text;html=1;align=center;verticalAlign=middle;resizable=0;points=[];autosize=1;strokeColor=none;fillColor=none;fontSize=12;" parent="1" vertex="1">
          <mxGeometry x="620" y="930" width="30" height="30" as="geometry" />
        </mxCell>
        <mxCell id="nLRBRidwz_fo-k9Ez-_o-248" value="0" style="text;html=1;align=center;verticalAlign=middle;resizable=0;points=[];autosize=1;strokeColor=none;fillColor=none;fontSize=12;" parent="1" vertex="1">
          <mxGeometry x="630" y="930" width="30" height="30" as="geometry" />
        </mxCell>
        <mxCell id="nLRBRidwz_fo-k9Ez-_o-249" value="0" style="text;html=1;align=center;verticalAlign=middle;resizable=0;points=[];autosize=1;strokeColor=none;fillColor=none;fontSize=12;" parent="1" vertex="1">
          <mxGeometry x="650" y="930" width="30" height="30" as="geometry" />
        </mxCell>
        <mxCell id="nLRBRidwz_fo-k9Ez-_o-250" value="0" style="text;html=1;align=center;verticalAlign=middle;resizable=0;points=[];autosize=1;strokeColor=none;fillColor=none;fontSize=12;" parent="1" vertex="1">
          <mxGeometry x="660" y="930" width="30" height="30" as="geometry" />
        </mxCell>
        <mxCell id="nLRBRidwz_fo-k9Ez-_o-251" value="0" style="text;html=1;align=center;verticalAlign=middle;resizable=0;points=[];autosize=1;strokeColor=none;fillColor=none;fontSize=12;" parent="1" vertex="1">
          <mxGeometry x="670" y="930" width="30" height="30" as="geometry" />
        </mxCell>
        <mxCell id="nLRBRidwz_fo-k9Ez-_o-252" value="0" style="text;html=1;align=center;verticalAlign=middle;resizable=0;points=[];autosize=1;strokeColor=none;fillColor=none;fontSize=12;" parent="1" vertex="1">
          <mxGeometry x="680" y="930" width="30" height="30" as="geometry" />
        </mxCell>
        <mxCell id="nLRBRidwz_fo-k9Ez-_o-253" value="0" style="text;html=1;align=center;verticalAlign=middle;resizable=0;points=[];autosize=1;strokeColor=none;fillColor=none;fontSize=12;" parent="1" vertex="1">
          <mxGeometry x="700" y="930" width="30" height="30" as="geometry" />
        </mxCell>
        <mxCell id="nLRBRidwz_fo-k9Ez-_o-254" value="0" style="text;html=1;align=center;verticalAlign=middle;resizable=0;points=[];autosize=1;strokeColor=none;fillColor=none;fontSize=12;" parent="1" vertex="1">
          <mxGeometry x="710" y="930" width="30" height="30" as="geometry" />
        </mxCell>
        <mxCell id="nLRBRidwz_fo-k9Ez-_o-255" value="0" style="text;html=1;align=center;verticalAlign=middle;resizable=0;points=[];autosize=1;strokeColor=none;fillColor=none;fontSize=12;" parent="1" vertex="1">
          <mxGeometry x="720" y="930" width="30" height="30" as="geometry" />
        </mxCell>
        <mxCell id="nLRBRidwz_fo-k9Ez-_o-256" value="0" style="text;html=1;align=center;verticalAlign=middle;resizable=0;points=[];autosize=1;strokeColor=none;fillColor=none;fontSize=12;" parent="1" vertex="1">
          <mxGeometry x="730" y="930" width="30" height="30" as="geometry" />
        </mxCell>
        <mxCell id="nLRBRidwz_fo-k9Ez-_o-257" value="取cap为：2^29 + 1" style="text;html=1;align=center;verticalAlign=middle;resizable=0;points=[];autosize=1;strokeColor=none;fillColor=none;" parent="1" vertex="1">
          <mxGeometry x="220" y="790" width="120" height="30" as="geometry" />
        </mxCell>
        <mxCell id="nLRBRidwz_fo-k9Ez-_o-258" value="&amp;nbsp; &amp;nbsp;int n = cap - 1" style="text;html=1;align=center;verticalAlign=middle;resizable=0;points=[];autosize=1;strokeColor=none;fillColor=none;" parent="1" vertex="1">
          <mxGeometry x="235" y="810" width="110" height="30" as="geometry" />
        </mxCell>
        <mxCell id="nLRBRidwz_fo-k9Ez-_o-259" value="n |= n &amp;gt;&amp;gt;&amp;gt; 1" style="text;html=1;align=center;verticalAlign=middle;resizable=0;points=[];autosize=1;strokeColor=none;fillColor=none;" parent="1" vertex="1">
          <mxGeometry x="255" y="830" width="90" height="30" as="geometry" />
        </mxCell>
        <mxCell id="nLRBRidwz_fo-k9Ez-_o-260" value="n |= n &amp;gt;&amp;gt;&amp;gt; 2" style="text;html=1;align=center;verticalAlign=middle;resizable=0;points=[];autosize=1;strokeColor=none;fillColor=none;" parent="1" vertex="1">
          <mxGeometry x="255" y="850" width="90" height="30" as="geometry" />
        </mxCell>
        <mxCell id="nLRBRidwz_fo-k9Ez-_o-261" value="n |= n &amp;gt;&amp;gt;&amp;gt; 4" style="text;html=1;align=center;verticalAlign=middle;resizable=0;points=[];autosize=1;strokeColor=none;fillColor=none;" parent="1" vertex="1">
          <mxGeometry x="255" y="870" width="90" height="30" as="geometry" />
        </mxCell>
        <mxCell id="nLRBRidwz_fo-k9Ez-_o-262" value="n |= n &amp;gt;&amp;gt;&amp;gt; 8" style="text;html=1;align=center;verticalAlign=middle;resizable=0;points=[];autosize=1;strokeColor=none;fillColor=none;" parent="1" vertex="1">
          <mxGeometry x="255" y="890" width="90" height="30" as="geometry" />
        </mxCell>
        <mxCell id="nLRBRidwz_fo-k9Ez-_o-263" value="&lt;span style=&quot;color: rgb(0, 0, 0); font-family: Helvetica; font-size: 12px; font-style: normal; font-variant-ligatures: normal; font-variant-caps: normal; font-weight: 400; letter-spacing: normal; orphans: 2; text-align: center; text-indent: 0px; text-transform: none; widows: 2; word-spacing: 0px; -webkit-text-stroke-width: 0px; background-color: rgb(251, 251, 251); text-decoration-thickness: initial; text-decoration-style: initial; text-decoration-color: initial; float: none; display: inline !important;&quot;&gt;&amp;nbsp; n |= n &amp;gt;&amp;gt;&amp;gt; 16&lt;/span&gt;" style="text;whiteSpace=wrap;html=1;" parent="1" vertex="1">
          <mxGeometry x="260" y="910" width="100" height="40" as="geometry" />
        </mxCell>
        <mxCell id="nLRBRidwz_fo-k9Ez-_o-265" value="&lt;span style=&quot;color: rgb(0, 0, 0); font-family: Helvetica; font-size: 12px; font-style: normal; font-variant-ligatures: normal; font-variant-caps: normal; font-weight: 400; letter-spacing: normal; orphans: 2; text-align: center; text-indent: 0px; text-transform: none; widows: 2; word-spacing: 0px; -webkit-text-stroke-width: 0px; background-color: rgb(251, 251, 251); text-decoration-thickness: initial; text-decoration-style: initial; text-decoration-color: initial; float: none; display: inline !important;&quot;&gt;&amp;nbsp; n + 1&lt;/span&gt;" style="text;whiteSpace=wrap;html=1;" parent="1" vertex="1">
          <mxGeometry x="260" y="930" width="100" height="30" as="geometry" />
        </mxCell>
      </root>
    </mxGraphModel>
  </diagram>
</mxfile>
